<?xml version="1.0" encoding="utf-8"?>
<!-- Generator: Adobe Illustrator 18.1.0, SVG Export Plug-In . SVG Version: 6.00 Build 0)  -->
<svg version="1.1" id="Layer_1" xmlns="http://www.w3.org/2000/svg" xmlns:xlink="http://www.w3.org/1999/xlink" x="0px" y="0px"
	 viewBox="0 0 24 24" enable-background="new 0 0 24 24" xml:space="preserve">
<path d="M19,11.9c-0.5-0.2-0.8-0.7-0.6-1.2c0.1-0.4,0.5-0.6,0.9-0.6c0.1,0,0.2,0,0.3,0c0.5,0.2,0.8,0.7,0.6,1.2
	c-0.1,0.4-0.5,0.6-0.9,0.6C19.2,12,19.1,12,19,11.9z M17.3,8c0.1,0,0.2,0.1,0.3,0.1c0.5,0,0.9-0.3,1-0.7c0.2-0.6-0.1-1.2-0.7-1.4
	c-0.1,0-0.2-0.1-0.3-0.1c-0.5,0-0.9,0.3-1,0.7C16.5,7.2,16.8,7.8,17.3,8z M14.6,5.5c0.2-0.5-0.1-1-0.6-1.2c-0.1,0-0.2,0-0.3,0
	c-0.4,0-0.8,0.2-0.9,0.6c-0.2,0.5,0.1,1,0.6,1.2c0.1,0,0.2,0,0.3,0C14.1,6.2,14.5,5.9,14.6,5.5z M12,0C5.4,0,0,5.4,0,12
	c0,6.3,4.8,11.5,11,12l0.8-6.7l0.1-0.5v-1.8c0-0.1,0-0.2,0-0.3c-0.2,0-0.4-0.1-0.6-0.2c-0.5,0.8-1.5,2.3-2.5,3.5
	c0,0.1,0.1,0.1,0.1,0.2c0.2,0.3,0.2,0.7,0.1,1c-0.2,0.6-0.7,0.9-1.3,0.9c-0.1,0-0.3,0-0.4-0.1c-0.7-0.2-1.1-1-0.9-1.7
	c0.2-0.6,0.7-0.9,1.3-0.9c0.1,0,0.3,0,0.4,0.1c0,0,0.1,0,0.1,0.1c0.9-1.2,2-2.7,2.5-3.4c-0.2-0.2-0.3-0.3-0.4-0.6
	c-0.7,0.3-2.5,1-4.1,1.3c0,0.2,0,0.4-0.1,0.6c-0.2,0.6-0.8,1-1.4,1c-0.2,0-0.3,0-0.5-0.1c-0.8-0.3-1.2-1.1-0.9-1.9
	c0.2-0.6,0.8-1,1.4-1c0.2,0,0.3,0,0.5,0.1c0.4,0.1,0.6,0.4,0.8,0.7c1.7-0.4,3.5-1.1,4.1-1.3c0,0,0-0.1,0-0.3c-1.5-0.4-3.4-0.8-4.3-1
	c-0.2,0.2-0.5,0.4-0.8,0.4c-0.1,0-0.2,0-0.4,0c-0.3-0.1-0.5-0.3-0.7-0.5c-0.1-0.3-0.2-0.6-0.1-0.9c0.1-0.5,0.5-0.8,1-0.8
	c0.1,0,0.2,0,0.4,0c0.3,0.1,0.5,0.3,0.7,0.5C6,10.5,6,10.7,6,10.9c1.1,0.2,2.6,0.6,4,1c0-0.2,0.1-0.2,0.1-0.3
	C9.6,11.3,7.5,9.7,6,7.8C5.9,7.8,5.7,7.9,5.6,7.9c-0.1,0-0.3,0-0.4-0.1C4.4,7.6,4,6.8,4.3,6.1C4.4,5.5,5,5.1,5.6,5.1
	c0.1,0,0.3,0,0.4,0.1c0.3,0.1,0.6,0.4,0.8,0.7c0.2,0.3,0.2,0.7,0.1,1C6.8,7.1,6.7,7.3,6.6,7.4c1.3,1.7,3.2,3.2,3.8,3.6
	c0-0.1,0.1-0.1,0.1-0.2C9.7,8.7,9.4,6.3,9.3,5C9.2,5,9.1,5,9.1,4.9C8.8,4.8,8.5,4.6,8.4,4.4C8.3,4.1,8.2,3.8,8.3,3.5
	C8.5,3,8.9,2.7,9.4,2.7c0.1,0,0.2,0,0.4,0.1c0.6,0.2,0.9,0.8,0.7,1.4c-0.1,0.3-0.3,0.5-0.5,0.6c0.1,1.2,0.3,3.5,1.1,5.5
	c0.1-0.1,0.2-0.1,0.4-0.1c0.2-0.1,0.5-0.1,0.7,0c0.2-0.7,0.7-2.4,0.9-3.8c-0.6-0.3-0.8-1-0.6-1.6c0.2-0.6,0.7-0.9,1.3-0.9
	c0.1,0,0.3,0,0.4,0.1c0.3,0.1,0.6,0.4,0.8,0.7c0.2,0.3,0.2,0.7,0.1,1c-0.2,0.6-0.7,0.9-1.3,0.9c-0.1,1.4-0.7,3.1-0.9,3.8
	c0.2,0.1,0.3,0.2,0.4,0.3c1.2-1.1,2.4-2.2,3.1-2.9c-0.2-0.4-0.3-0.8-0.2-1.3c0.2-0.6,0.8-1,1.4-1c0.2,0,0.3,0,0.5,0.1
	c0.4,0.1,0.7,0.4,0.9,0.8c0.2,0.4,0.2,0.8,0.1,1.1c-0.2,0.6-0.8,1-1.4,1c-0.2,0-0.3,0-0.5-0.1c-0.1,0-0.2-0.1-0.3-0.1
	c-0.9,0.9-2.4,2.2-3.2,3c0.1,0.2,0.2,0.3,0.2,0.5c1.5-0.2,3-0.5,4-0.7c0-0.2,0-0.3,0.1-0.5c0.2-0.6,0.7-0.9,1.3-0.9
	c0.1,0,0.3,0,0.4,0.1c0.3,0.1,0.6,0.4,0.8,0.7c0.2,0.3,0.2,0.7,0.1,1c-0.2,0.6-0.7,0.9-1.3,0.9c-0.1,0-0.3,0-0.4-0.1
	c-0.3-0.1-0.6-0.3-0.7-0.6C17,12,15.4,12.2,14,12.5c0,0,0,0,0,0c0,0.2,0,0.3-0.1,0.5c1.4,0.7,3,1.4,4.1,1.8c0.2-0.4,0.7-0.7,1.2-0.7
	c0.1,0,0.3,0,0.4,0.1c0.3,0.1,0.6,0.4,0.8,0.7c0.2,0.3,0.2,0.7,0.1,1c-0.2,0.6-0.7,0.9-1.3,0.9c-0.1,0-0.3,0-0.4-0.1
	c-0.3-0.1-0.6-0.4-0.8-0.7c-0.1-0.2-0.1-0.4-0.1-0.6c-1.1-0.4-2.7-1.2-4.1-1.8c-0.1,0.1-0.1,0.2-0.2,0.3c0.6,1,1.5,2.5,2.1,3.4
	c0.1,0,0.2-0.1,0.4-0.1c0.1,0,0.2,0,0.4,0.1c0.3,0.1,0.5,0.3,0.7,0.6c0.1,0.3,0.2,0.6,0.1,0.9c-0.2,0.5-0.6,0.8-1.1,0.8
	c-0.1,0-0.2,0-0.4-0.1c-0.3-0.1-0.5-0.3-0.7-0.6c-0.1-0.3-0.2-0.6-0.1-0.9c0-0.1,0.1-0.2,0.2-0.3c-0.7-1.1-1.7-2.7-2.1-3.4
	c-0.1,0.1-0.2,0.1-0.4,0.1c0,0,0,0-0.1,0c0,0.2,0,0.5,0,0.7c0,2.1,0.1,3.8-0.1,4.8C12.1,21.8,12,23.2,12,24c6.6,0,12-5.4,12-12
	C24,5.4,18.6,0,12,0z M15.9,19.2c0.3,0,0.6-0.2,0.7-0.5c0.1-0.4-0.1-0.8-0.4-0.9c-0.1,0-0.2,0-0.2,0c-0.3,0-0.6,0.2-0.7,0.5
	c-0.1,0.4,0.1,0.8,0.4,0.9C15.7,19.2,15.8,19.2,15.9,19.2z M18.9,16.4c0.1,0,0.2,0,0.3,0c0.4,0,0.8-0.2,0.9-0.6
	c0.2-0.5-0.1-1-0.6-1.2c-0.1,0-0.2-0.1-0.3-0.1c-0.4,0-0.8,0.2-0.9,0.6C18.1,15.7,18.4,16.2,18.9,16.4z M7.6,17.8
	c-0.4,0-0.8,0.2-0.9,0.6c-0.2,0.5,0.1,1,0.6,1.2c0.1,0,0.2,0.1,0.3,0.1c0.4,0,0.8-0.2,0.9-0.6c0.2-0.5-0.1-1-0.6-1.2
	C7.8,17.8,7.7,17.8,7.6,17.8z M9.6,3.2c-0.1,0-0.2,0-0.2,0c-0.3,0-0.6,0.2-0.7,0.5C8.6,4,8.8,4.4,9.2,4.5c0.1,0,0.2,0,0.2,0
	c0.3,0,0.6-0.2,0.7-0.5C10.2,3.7,10,3.3,9.6,3.2z M4.6,13.8c-0.5,0-0.9,0.3-1,0.7c-0.2,0.6,0.1,1.2,0.7,1.4C4.4,16,4.5,16,4.6,16
	c0.5,0,0.9-0.3,1-0.7c0.2-0.6-0.1-1.2-0.7-1.4C4.8,13.9,4.7,13.8,4.6,13.8z M4.8,10.1c-0.3,0-0.6,0.2-0.6,0.5
	c-0.1,0.4,0.1,0.8,0.5,0.9c0.1,0,0.2,0,0.2,0c0.3,0,0.6-0.2,0.6-0.5c0.1-0.4-0.1-0.8-0.5-0.9C5,10.1,4.9,10.1,4.8,10.1z M5.9,5.6
	c-0.1,0-0.2,0-0.3,0c-0.4,0-0.8,0.2-0.9,0.6c-0.2,0.5,0.1,1,0.6,1.2c0.1,0,0.2,0,0.3,0c0.4,0,0.8-0.2,0.9-0.6
	C6.6,6.3,6.4,5.8,5.9,5.6z"/>
</svg>
