<?xml version="1.0" encoding="utf-8"?>
<!-- Generator: Adobe Illustrator 18.1.0, SVG Export Plug-In . SVG Version: 6.00 Build 0)  -->
<svg version="1.1" id="Livello_1" xmlns="http://www.w3.org/2000/svg" xmlns:xlink="http://www.w3.org/1999/xlink" x="0px" y="0px"
	 viewBox="0 0 127 40" enable-background="new 0 0 127 40" xml:space="preserve">
<g>
	<path fill="#3389C0" d="M53.7,14.8c3.8,0,6.6,1.4,6.6,4.9v8.2c0,0.9,0.2,1.2,0.8,1.2c0.2,0,0.4,0,0.8-0.1v2.5
		c-1.1,0.3-1.6,0.3-2.3,0.3c-1.4,0-2.4-0.5-2.6-1.9c-1.5,1.4-3.5,1.9-5.6,1.9c-3.3,0-5.4-1.8-5.4-4.8c0-4.3,4-4.7,7.2-5.1
		c2.5-0.3,3.2-0.5,3.5-0.9c0.2-0.2,0.2-0.6,0.2-1.2c0-1.7-1.1-2.4-3.3-2.4c-2.3,0-3.3,0.8-3.6,2.9h-3.4C47,16.3,49.7,14.8,53.7,14.8
		z M53.1,24.1c-1.7,0.2-3.5,0.6-3.5,2.7c0,1.5,1.1,2.4,2.9,2.4c1.5,0,2.8-0.5,3.6-1.3c0.7-0.7,0.7-1.8,0.7-2.8v-1.9
		C55.7,23.9,54.4,24,53.1,24.1z M67.5,17.6c1.3-1.9,2.9-2.8,5.3-2.8c3.7,0,5.5,2.1,5.5,5.8v10.7h-3.6V22c0-2.2-0.3-4.2-3.1-4.2
		c-2.1,0-3.9,1.2-3.9,4.9v8.7h-3.6V15.3h3.4V17.6z M89.8,17.8h-3.2v8.5c0,1.5,0,2.3,1.8,2.3c0.5,0,0.9,0,1.4-0.1v2.8
		c-1.1,0.1-1.5,0.1-2.4,0.1c-4.7,0-4.4-2.3-4.4-6v-7.7h-2.7v-2.6H83v-4.8h3.6v4.8h3.2V17.8z M95.9,17.5c1.2-1.7,2.9-2.6,5.1-2.6
		c3.4,0,5.5,1.9,5.5,5.6v10.9h-3.6v-9.8c0-2.1-0.5-3.8-3.1-3.8c-2.9,0-3.9,2.2-3.9,4.9v8.6h-3.5V9.2h3.5V17.5z M117.1,14.8
		c3.8,0,6.6,1.4,6.6,4.9v8.2c0,0.9,0.2,1.2,0.8,1.2c0.2,0,0.4,0,0.8-0.1v2.5c-1.1,0.3-1.6,0.3-2.3,0.3c-1.4,0-2.4-0.5-2.6-1.9
		c-1.5,1.4-3.5,1.9-5.6,1.9c-3.3,0-5.4-1.8-5.4-4.8c0-4.3,4-4.7,7.2-5.1c2.5-0.3,3.2-0.5,3.5-0.9c0.2-0.2,0.2-0.6,0.2-1.2
		c0-1.7-1.1-2.4-3.3-2.4c-2.3,0-3.3,0.8-3.6,2.9h-3.4C110.5,16.3,113.2,14.8,117.1,14.8z M116.6,24.1c-1.7,0.2-3.5,0.6-3.5,2.7
		c0,1.5,1.1,2.4,2.9,2.4c1.5,0,2.8-0.5,3.6-1.3c0.7-0.7,0.7-1.8,0.7-2.8v-1.9C119.1,23.9,117.8,24,116.6,24.1z"/>
	<linearGradient id="SVGID_1_" gradientUnits="userSpaceOnUse" x1="7.3497" y1="38.9567" x2="36.1558" y2="-0.3415">
		<stop  offset="0" style="stop-color:#56AF31"/>
		<stop  offset="1" style="stop-color:#3389C0"/>
	</linearGradient>
	<path fill="url(#SVGID_1_)" d="M32.7,19.9c-0.8-0.3-1.2-1.2-1-2c0.2-0.6,0.8-1.1,1.5-1.1c0.2,0,0.3,0,0.5,0.1c0.8,0.3,1.2,1.2,1,2
		c-0.2,0.6-0.8,1.1-1.5,1.1C33,20,32.9,19.9,32.7,19.9z M30,13.5c0.2,0.1,0.4,0.1,0.6,0.1c0.7,0,1.4-0.5,1.7-1.2
		c0.3-0.9-0.2-1.9-1.1-2.2C30.9,10,30.7,10,30.5,10c-0.7,0-1.4,0.5-1.7,1.2C28.5,12.1,29,13.1,30,13.5z M25.5,9.4
		c0.3-0.8-0.2-1.7-1-2c-0.2-0.1-0.3-0.1-0.5-0.1c-0.6,0-1.3,0.4-1.5,1.1c-0.3,0.8,0.2,1.7,1,2c0.2,0.1,0.3,0.1,0.5,0.1
		C24.7,10.5,25.3,10.1,25.5,9.4z M21.2,0.4C10.4,0.4,1.6,9.2,1.6,20c0,10.3,7.9,18.7,18,19.5l1.2-11l0.1-0.8v-3c0-0.2,0-0.4,0-0.6
		c-0.3,0-0.6-0.1-0.9-0.3c-0.8,1.2-2.5,3.7-4.1,5.7c0.1,0.1,0.1,0.2,0.2,0.3c0.3,0.5,0.3,1.1,0.1,1.7c-0.3,0.9-1.2,1.5-2.1,1.5
		c-0.2,0-0.5,0-0.7-0.1c-1.2-0.4-1.8-1.7-1.4-2.8c0.3-0.9,1.2-1.5,2.1-1.5c0.2,0,0.5,0,0.7,0.1c0.1,0,0.1,0.1,0.2,0.1
		c1.5-2,3.2-4.4,4.1-5.6c-0.3-0.3-0.5-0.6-0.7-0.9c-1.2,0.5-4,1.6-6.8,2.2c0,0.3,0,0.6-0.1,0.9c-0.3,1-1.3,1.7-2.3,1.7
		c-0.3,0-0.5,0-0.8-0.1c-1.3-0.4-2-1.8-1.5-3.1c0.3-1,1.3-1.7,2.3-1.7c0.3,0,0.5,0,0.8,0.1c0.6,0.2,1,0.6,1.3,1.1
		c2.7-0.6,5.7-1.8,6.8-2.2c0-0.1,0-0.2-0.1-0.4c-2.4-0.6-5.5-1.4-7-1.7c-0.3,0.4-0.8,0.6-1.3,0.6c-0.2,0-0.4,0-0.6-0.1
		c-0.5-0.1-0.9-0.4-1.1-0.9c-0.2-0.4-0.3-0.9-0.2-1.4c0.2-0.8,0.9-1.3,1.7-1.3c0.2,0,0.4,0,0.6,0.1c0.5,0.1,0.9,0.4,1.1,0.9
		c0.2,0.3,0.3,0.7,0.2,1.1c1.7,0.3,4.3,1,6.6,1.7c0.1-0.3,0.1-0.4,0.2-0.5c-0.8-0.6-4.2-3.1-6.7-6.3c-0.2,0.1-0.5,0.1-0.7,0.1
		c-0.2,0-0.5,0-0.7-0.1c-1.2-0.4-1.8-1.7-1.4-2.8c0.3-0.9,1.2-1.5,2.1-1.5c0.2,0,0.5,0,0.7,0.1c0.6,0.2,1,0.6,1.3,1.1
		c0.3,0.5,0.3,1.1,0.1,1.7c-0.1,0.3-0.2,0.5-0.4,0.7c2.2,2.8,5.2,5.2,6.2,5.9c0.1-0.1,0.1-0.2,0.2-0.3c-1.4-3.5-1.9-7.3-2-9.5
		c-0.1,0-0.3,0-0.4-0.1c-0.5-0.2-0.8-0.5-1.1-0.9c-0.2-0.4-0.3-0.9-0.1-1.4c0.3-0.8,1-1.3,1.7-1.3c0.2,0,0.4,0,0.6,0.1
		c1,0.3,1.5,1.4,1.2,2.3c-0.1,0.4-0.4,0.8-0.8,1c0.1,2,0.6,5.7,1.8,9c0.2-0.1,0.4-0.2,0.6-0.2c0.4-0.1,0.7-0.1,1.1,0
		c0.3-1.1,1.2-3.9,1.4-6.1c-0.9-0.5-1.4-1.6-1-2.7c0.3-0.9,1.2-1.5,2.1-1.5c0.2,0,0.5,0,0.7,0.1c0.6,0.2,1,0.6,1.3,1.1
		c0.3,0.5,0.3,1.1,0.1,1.7c-0.3,0.9-1.2,1.5-2.1,1.5c-0.2,2.4-1.1,5.1-1.4,6.2c0.3,0.1,0.5,0.3,0.7,0.5c1.9-1.7,3.9-3.6,5.1-4.8
		c-0.4-0.6-0.5-1.4-0.3-2.1c0.3-1,1.3-1.7,2.3-1.7c0.3,0,0.5,0,0.8,0.1c0.6,0.2,1.1,0.7,1.4,1.2c0.3,0.6,0.3,1.3,0.1,1.9
		c-0.3,1-1.3,1.7-2.3,1.7c-0.3,0-0.5,0-0.8-0.1c-0.2-0.1-0.3-0.1-0.5-0.2c-1.5,1.5-3.9,3.7-5.2,4.9c0.1,0.3,0.3,0.5,0.3,0.9
		c2.4-0.3,4.9-0.8,6.6-1.1c0-0.2,0-0.5,0.1-0.7c0.3-0.9,1.2-1.5,2.1-1.5c0.2,0,0.5,0,0.7,0.1c0.6,0.2,1,0.6,1.3,1.1
		c0.3,0.5,0.3,1.1,0.1,1.7c-0.3,0.9-1.2,1.5-2.1,1.5c-0.2,0-0.5,0-0.7-0.1c-0.5-0.2-0.9-0.5-1.2-1c-1.9,0.4-4.5,0.9-6.8,1.2
		c0,0,0,0,0,0.1c0,0.3,0,0.6-0.1,0.8c2.4,1.1,4.9,2.3,6.7,3c0.4-0.7,1.1-1.1,1.9-1.1c0.2,0,0.5,0,0.7,0.1c0.6,0.2,1,0.6,1.3,1.1
		c0.3,0.5,0.3,1.1,0.1,1.7C34.8,27.3,33.9,28,33,28c-0.2,0-0.5,0-0.7-0.1c-0.6-0.2-1-0.6-1.3-1.1c-0.2-0.3-0.2-0.7-0.2-1
		c-1.9-0.7-4.5-1.9-6.7-3c-0.1,0.2-0.2,0.4-0.4,0.6c0.9,1.6,2.4,4.1,3.4,5.6c0.2-0.1,0.4-0.1,0.6-0.1c0.2,0,0.4,0,0.6,0.1
		c0.5,0.2,0.8,0.5,1.1,0.9c0.2,0.4,0.3,0.9,0.1,1.4c-0.3,0.8-1,1.3-1.7,1.3c-0.2,0-0.4,0-0.6-0.1c-0.5-0.2-0.8-0.5-1.1-0.9
		c-0.2-0.4-0.3-0.9-0.1-1.4c0.1-0.2,0.1-0.3,0.2-0.5c-1.2-1.8-2.8-4.5-3.4-5.6c-0.2,0.1-0.4,0.2-0.6,0.2c0,0-0.1,0-0.1,0
		c0,0.3,0,0.7,0,1.2c0,3.4,0.1,6.2-0.1,7.8c-0.4,2.8-0.5,5.1-0.6,6.4c10.8,0,19.6-8.8,19.6-19.6C40.9,9.2,32.1,0.4,21.2,0.4z
		 M27.6,31.8c0.5,0,0.9-0.3,1.1-0.8c0.2-0.6-0.1-1.3-0.7-1.5c-0.1,0-0.2-0.1-0.4-0.1c-0.5,0-0.9,0.3-1.1,0.8
		c-0.2,0.6,0.1,1.3,0.7,1.5C27.4,31.8,27.5,31.8,27.6,31.8z M32.5,27.2c0.2,0.1,0.3,0.1,0.5,0.1c0.6,0,1.2-0.4,1.5-1.1
		c0.3-0.8-0.2-1.7-1-2c-0.2-0.1-0.3-0.1-0.5-0.1c-0.6,0-1.3,0.4-1.5,1.1C31.2,26,31.7,26.9,32.5,27.2z M14.1,29.5
		c-0.6,0-1.3,0.4-1.5,1.1c-0.3,0.8,0.2,1.7,1,2c0.2,0.1,0.3,0.1,0.5,0.1c0.6,0,1.2-0.4,1.5-1.1c0.3-0.8-0.2-1.7-1-2
		C14.4,29.5,14.3,29.5,14.1,29.5z M17.4,5.6c-0.1,0-0.2-0.1-0.4-0.1c-0.5,0-0.9,0.3-1.1,0.8c-0.2,0.6,0.1,1.3,0.7,1.5
		c0.1,0,0.2,0.1,0.4,0.1c0.5,0,0.9-0.3,1.1-0.8C18.3,6.4,18,5.8,17.4,5.6z M9.2,23c-0.7,0-1.4,0.5-1.7,1.2c-0.3,0.9,0.2,1.9,1.1,2.2
		c0.2,0.1,0.4,0.1,0.6,0.1c0.7,0,1.4-0.5,1.7-1.2c0.3-0.9-0.2-1.9-1.1-2.2C9.5,23,9.4,23,9.2,23z M9.6,16.9c-0.5,0-0.9,0.4-1.1,0.8
		c-0.2,0.6,0.2,1.3,0.8,1.4c0.1,0,0.2,0,0.4,0c0.5,0,0.9-0.4,1.1-0.8c0.2-0.6-0.2-1.3-0.8-1.4C9.8,16.9,9.7,16.9,9.6,16.9z
		 M11.2,9.6c-0.2-0.1-0.3-0.1-0.5-0.1c-0.6,0-1.2,0.4-1.5,1.1c-0.3,0.8,0.2,1.7,1,2c0.2,0.1,0.3,0.1,0.5,0.1c0.6,0,1.2-0.4,1.5-1.1
		C12.5,10.7,12,9.8,11.2,9.6z"/>
</g>
</svg>
