<?xml version="1.0" encoding="utf-8"?>
<!-- Generator: Adobe Illustrator 18.1.0, SVG Export Plug-In . SVG Version: 6.00 Build 0)  -->
<svg version="1.1" id="Livello_1" xmlns="http://www.w3.org/2000/svg" xmlns:xlink="http://www.w3.org/1999/xlink" x="0px" y="0px"
	 viewBox="0 0 416 216" enable-background="new 0 0 416 216" xml:space="preserve">
<g>
	<path fill="#3389C0" d="M175.4,86.6c12.6,0,21.9,4.6,21.9,16.1v27c0,3.1,0.6,3.9,2.8,3.9c0.8,0,1.2,0,2.7-0.2v8.3
		c-3.7,0.9-5.4,1.1-7.6,1.1c-4.5,0-7.8-1.8-8.7-6.4c-4.9,4.6-11.7,6.4-18.7,6.4c-11,0-18-6.1-18-15.9c0-14.1,13.2-15.5,23.8-16.8
		c8.2-1,10.5-1.5,11.7-3.1c0.5-0.6,0.7-1.9,0.7-3.8c0-5.5-3.5-8.1-10.9-8.1c-7.6,0-10.9,2.6-11.9,9.5H152
		C153.4,91.5,162.4,86.6,175.4,86.6z M173.5,117.6c-5.5,0.8-11.7,1.9-11.7,8.9c0,5.1,3.5,8,9.6,8c4.9,0,9.4-1.5,12.1-4.2
		c2.5-2.5,2.4-6,2.4-9.2v-6.3C182.1,116.9,177.8,117,173.5,117.6z M221.2,96.1c4.4-6.4,9.7-9.3,17.7-9.3c12.3,0,18.1,7.1,18.1,19.2
		v35.5h-11.8v-31c0-7.3-0.9-13.9-10.3-13.9c-7.1,0-13,3.9-13,16.2v28.7h-11.8V88.2h11.1V96.1z M295.2,96.8h-10.7v28.1
		c0,5.1-0.1,7.6,6.1,7.6c1.6,0,2.9,0,4.6-0.2v9.3c-3.5,0.4-5,0.4-7.9,0.4c-15.5,0-14.6-7.7-14.6-19.8V96.8h-8.9v-8.6h8.9v-16h11.8
		v16h10.7V96.8z M315.4,95.5c3.8-5.7,9.5-8.7,16.8-8.7c11.4,0,18.4,6.2,18.4,18.5v36.1h-11.9v-32.3c0-7.1-1.5-12.5-10.3-12.5
		c-9.6,0-13,7.2-13,16.2v28.6h-11.7V68h11.7V95.5z M385.7,86.6c12.6,0,21.9,4.6,21.9,16.1v27c0,3.1,0.6,3.9,2.8,3.9
		c0.8,0,1.2,0,2.7-0.2v8.3c-3.7,0.9-5.4,1.1-7.6,1.1c-4.5,0-7.8-1.8-8.7-6.4c-4.9,4.6-11.7,6.4-18.7,6.4c-11,0-18-6.1-18-15.9
		c0-14.1,13.2-15.5,23.8-16.8c8.2-1,10.5-1.5,11.7-3.1c0.5-0.6,0.7-1.9,0.7-3.8c0-5.5-3.5-8.1-10.9-8.1c-7.6,0-10.9,2.6-11.9,9.5
		h-11.1C363.7,91.5,372.7,86.6,385.7,86.6z M383.8,117.6c-5.5,0.8-11.7,1.9-11.7,8.9c0,5.1,3.5,8,9.6,8c4.9,0,9.4-1.5,12.1-4.2
		c2.5-2.5,2.4-6,2.4-9.2v-6.3C392.4,116.9,388,117,383.8,117.6z"/>
	<linearGradient id="SVGID_1_" gradientUnits="userSpaceOnUse" x1="21.9314" y1="166.7286" x2="117.388" y2="36.5041">
		<stop  offset="0" style="stop-color:#56AF31"/>
		<stop  offset="1" style="stop-color:#3389C0"/>
	</linearGradient>
	<path fill="url(#SVGID_1_)" d="M105.9,103.5c-2.7-0.9-4.1-3.8-3.2-6.5c0.7-2.1,2.7-3.5,4.9-3.5c0.5,0,1.1,0.1,1.6,0.3
		c2.7,0.9,4.1,3.8,3.2,6.5c-0.7,2.1-2.7,3.5-4.9,3.5C107,103.8,106.5,103.7,105.9,103.5z M96.9,82.2c0.6,0.2,1.3,0.3,1.9,0.3
		c2.5,0,4.7-1.5,5.6-4c1-3.1-0.6-6.4-3.7-7.5c-0.6-0.2-1.3-0.3-1.9-0.3c-2.5,0-4.7,1.5-5.6,4C92.2,77.9,93.8,81.2,96.9,82.2z
		 M82.2,68.9c0.9-2.7-0.5-5.6-3.2-6.5c-0.5-0.2-1.1-0.3-1.6-0.3c-2.1,0-4.1,1.4-4.9,3.5c-0.9,2.7,0.5,5.6,3.2,6.5
		c0.5,0.2,1.1,0.3,1.6,0.3C79.5,72.4,81.5,71.1,82.2,68.9z M68,38.9c-35.9,0-65,29.1-65,65c0,34.1,26.3,62,59.6,64.8l4.1-36.4
		l0.3-2.5v-10c0-0.7,0-1.3,0-1.9c-1.1-0.1-2.1-0.4-3.1-0.8c-2.8,4.1-8.4,12.2-13.7,19c0.2,0.3,0.5,0.7,0.7,1.1
		c0.9,1.8,1,3.8,0.4,5.7c-1,3-3.8,5-7,5c-0.8,0-1.6-0.1-2.4-0.4c-3.9-1.3-6-5.5-4.7-9.4c1-3,3.8-5,7-5c0.8,0,1.6,0.1,2.4,0.4
		c0.2,0.1,0.4,0.2,0.7,0.3c5.1-6.5,10.7-14.6,13.4-18.6c-0.9-0.9-1.7-1.9-2.3-3c-3.8,1.6-13.4,5.2-22.4,7.2c0.1,1-0.1,2.1-0.4,3.1
		c-1.1,3.3-4.2,5.5-7.7,5.5c-0.9,0-1.8-0.1-2.6-0.4c-4.3-1.4-6.5-6.1-5.1-10.3c1.1-3.3,4.2-5.5,7.7-5.5c0.9,0,1.8,0.1,2.6,0.4
		c1.9,0.7,3.4,2,4.4,3.6c9-2,19-5.8,22.4-7.3c0-0.2-0.2-0.7-0.2-1.4c-8-2.2-18.3-4.5-23.1-5.5c-1.1,1.2-2.6,2-4.3,2.1
		c-0.7,0-1.3,0-2-0.2c-1.6-0.4-2.9-1.5-3.7-2.9c-0.8-1.4-1-3.1-0.5-4.6c0.7-2.5,3-4.3,5.6-4.5c0.7,0,1.3,0,2,0.2
		c1.6,0.4,2.9,1.5,3.7,2.9c0.6,1.2,0.9,2.5,0.7,3.7c5.7,1.1,14.3,3.3,21.8,5.5c0.2-0.9,0.4-1.2,0.5-1.5c-2.6-1.9-14.1-10.4-22.3-21
		c-0.8,0.3-1.6,0.4-2.5,0.4c-0.8,0-1.6-0.1-2.4-0.4c-3.9-1.3-6-5.5-4.6-9.4c1-3,3.8-5,7-5c0.8,0,1.6,0.1,2.4,0.4
		c1.9,0.6,3.4,2,4.3,3.7c0.9,1.8,1,3.8,0.4,5.7c-0.3,0.9-0.8,1.7-1.4,2.4c7.2,9.2,17.3,17.1,20.6,19.6c0.2-0.4,0.5-0.7,0.8-1.1
		c-4.6-11.5-6.2-24.3-6.7-31.6c-0.5,0-0.9-0.1-1.4-0.3c-1.6-0.5-2.8-1.6-3.5-3.1c-0.7-1.5-0.8-3.1-0.3-4.7c0.8-2.5,3.2-4.2,5.8-4.2
		c0.7,0,1.3,0.1,2,0.3c3.2,1.1,4.9,4.6,3.9,7.8c-0.5,1.4-1.4,2.5-2.6,3.3c0.5,6.8,1.8,19,6,30c0.6-0.3,1.3-0.6,2.1-0.7
		c1.2-0.3,2.5-0.3,3.7-0.2c1.2-3.6,4-12.9,4.7-20.4c-3-1.7-4.5-5.4-3.3-8.8c1-3,3.8-5,7-5c0.8,0,1.6,0.1,2.4,0.4
		c1.9,0.6,3.4,2,4.3,3.7c0.9,1.8,1,3.8,0.4,5.7c-1,3-3.8,5-7,5c-0.8,7.8-3.6,16.9-4.8,20.5c0.9,0.4,1.7,1,2.4,1.6
		c6.3-5.7,13-11.9,16.9-15.8c-1.3-2-1.6-4.5-0.8-7c1.1-3.3,4.2-5.5,7.7-5.5c0.9,0,1.8,0.1,2.6,0.4c2.1,0.7,3.7,2.2,4.7,4.1
		c1,2,1.1,4.2,0.4,6.2c-1.1,3.3-4.2,5.6-7.7,5.6c-0.9,0-1.8-0.1-2.6-0.4c-0.6-0.2-1.1-0.4-1.6-0.7c-4.9,5-12.8,12.2-17.2,16.1
		c0.5,0.9,0.9,1.8,1,2.8c7.9-1.2,16.1-2.6,21.8-3.8c0-0.8,0.1-1.7,0.4-2.5c1-3,3.8-5,7-5c0.8,0,1.6,0.1,2.4,0.4
		c1.9,0.6,3.4,2,4.3,3.7c0.9,1.8,1,3.8,0.4,5.7c-1,3-3.8,5-7,5c-0.8,0-1.6-0.1-2.4-0.4c-1.8-0.6-3.1-1.8-4-3.3
		c-6.2,1.4-14.8,2.8-22.5,3.9c0,0.1,0,0.1,0,0.2c0,0.9-0.2,1.8-0.3,2.7c7.8,3.8,16.4,7.7,22,9.9c1.3-2.2,3.7-3.7,6.4-3.7
		c0.8,0,1.6,0.1,2.4,0.4c1.9,0.6,3.4,2,4.3,3.7c0.9,1.8,1,3.8,0.4,5.7c-1,3-3.8,5-7,5c-0.8,0-1.6-0.1-2.4-0.4
		c-1.9-0.6-3.4-2-4.3-3.7c-0.5-1.1-0.8-2.2-0.8-3.4c-6.2-2.3-14.8-6.3-22.3-9.9c-0.4,0.7-0.8,1.3-1.3,1.9c3.1,5.4,8,13.6,11.3,18.6
		c0.6-0.2,1.3-0.3,1.9-0.3c0.7,0,1.3,0.1,2,0.3c1.6,0.5,2.8,1.6,3.5,3.1c0.7,1.5,0.8,3.1,0.3,4.7c-0.8,2.5-3.2,4.2-5.8,4.2
		c-0.7,0-1.3-0.1-2-0.3c-1.6-0.5-2.8-1.6-3.5-3.1c-0.7-1.5-0.8-3.1-0.3-4.7c0.2-0.6,0.5-1.1,0.8-1.6c-3.9-5.8-9.2-14.8-11.3-18.5
		c-0.6,0.3-1.3,0.5-2,0.7c-0.1,0-0.2,0-0.4,0.1c0,1.1,0,2.5,0,4c0,11.3,0.4,20.5-0.4,25.9c-1.4,9.2-1.8,17-1.9,21.1
		c35.9,0,65-29.1,65-65C133,68,103.9,38.9,68,38.9z M89,143c1.6,0,3.1-1,3.6-2.6c0.7-2-0.4-4.2-2.4-4.9c-0.4-0.1-0.8-0.2-1.2-0.2
		c-1.6,0-3.1,1-3.6,2.6c-0.7,2,0.4,4.2,2.4,4.9C88.2,142.9,88.6,143,89,143z M105.2,127.7c0.5,0.2,1.1,0.3,1.6,0.3
		c2.1,0,4.1-1.3,4.9-3.5c0.9-2.7-0.5-5.6-3.2-6.5c-0.5-0.2-1.1-0.3-1.6-0.3c-2.1,0-4.1,1.4-4.9,3.5
		C101,123.9,102.5,126.8,105.2,127.7z M44.3,135.3c-2.1,0-4.1,1.4-4.9,3.5c-0.9,2.7,0.5,5.6,3.2,6.5c0.5,0.2,1.1,0.3,1.6,0.3
		c2.1,0,4.1-1.4,4.9-3.5c0.9-2.7-0.5-5.6-3.2-6.5C45.4,135.4,44.9,135.3,44.3,135.3z M55.2,56.1c-0.4-0.1-0.8-0.2-1.2-0.2
		c-1.6,0-3.1,1-3.6,2.6c-0.7,2,0.4,4.2,2.4,4.9c0.4,0.1,0.8,0.2,1.2,0.2c1.6,0,3.1-1,3.6-2.6C58.3,59,57.2,56.8,55.2,56.1z
		 M27.9,113.9c-2.5,0-4.7,1.5-5.6,4c-1,3.1,0.6,6.4,3.7,7.5c0.6,0.2,1.3,0.3,1.9,0.3c2.5,0,4.7-1.5,5.6-4c1-3.1-0.6-6.4-3.7-7.5
		C29.2,114,28.6,113.9,27.9,113.9z M29.2,93.5c-1.6,0.1-3,1.2-3.5,2.8c-0.6,2,0.6,4.2,2.7,4.7c0.4,0.1,0.8,0.2,1.2,0.1
		c1.6-0.1,3-1.2,3.5-2.8c0.6-2-0.6-4.2-2.7-4.7C30.1,93.6,29.6,93.5,29.2,93.5z M34.7,69.3c-0.5-0.2-1.1-0.3-1.6-0.3
		c-2.1,0-4.1,1.4-4.9,3.5c-0.9,2.7,0.5,5.6,3.2,6.5c0.5,0.2,1.1,0.3,1.6,0.3c2.1,0,4.1-1.4,4.9-3.5C38.8,73.1,37.4,70.2,34.7,69.3z"
		/>
</g>
</svg>
