<?xml version="1.0" encoding="UTF-8" standalone="no"?>
<!-- Created with Inkscape (http://www.inkscape.org/) -->

<svg
   xmlns:dc="http://purl.org/dc/elements/1.1/"
   xmlns:cc="http://creativecommons.org/ns#"
   xmlns:rdf="http://www.w3.org/1999/02/22-rdf-syntax-ns#"
   xmlns:svg="http://www.w3.org/2000/svg"
   xmlns="http://www.w3.org/2000/svg"
   xmlns:xlink="http://www.w3.org/1999/xlink"
   xmlns:sodipodi="http://sodipodi.sourceforge.net/DTD/sodipodi-0.dtd"
   xmlns:inkscape="http://www.inkscape.org/namespaces/inkscape"
   width="24"
   height="24"
   id="svg3019"
   version="1.1"
   inkscape:version="0.48.5 r10040"
   sodipodi:docname="logo_white_32x32.svg">
  <defs
     id="defs3021">
    <linearGradient
       id="SVGID_1_"
       gradientUnits="userSpaceOnUse"
       x1="101.5317"
       y1="300.125"
       x2="177.69901"
       y2="196.2155">
      <stop
         offset="0"
         style="stop-color:#56AF31"
         id="stop2991" />
      <stop
         offset="1"
         style="stop-color:#3389C0"
         id="stop2993" />
    </linearGradient>
    <linearGradient
       gradientTransform="matrix(0.31109434,0,0,0.31109434,-26.874073,-61.79849)"
       y2="196.2155"
       x2="177.69901"
       y1="300.125"
       x1="101.5317"
       gradientUnits="userSpaceOnUse"
       id="linearGradient3017"
       xlink:href="#SVGID_1_"
       inkscape:collect="always" />
    <linearGradient
       x1="0"
       y1="0"
       x2="1"
       y2="0"
       gradientUnits="userSpaceOnUse"
       gradientTransform="matrix(76.167328,103.90955,103.90955,-76.167328,21.531004,7.6857915)"
       spreadMethod="pad"
       id="linearGradient36">
      <stop
         style="stop-opacity:1;stop-color:#5bb13a"
         offset="0"
         id="stop38" />
      <stop
         style="stop-opacity:1;stop-color:#3c8cc1"
         offset="1"
         id="stop40" />
    </linearGradient>
    <linearGradient
       y2="0"
       x2="1"
       y1="0"
       x1="0"
       spreadMethod="pad"
       gradientTransform="matrix(76.167328,103.90955,103.90955,-76.167328,21.531004,7.6857915)"
       gradientUnits="userSpaceOnUse"
       id="linearGradient3911"
       xlink:href="#linearGradient36"
       inkscape:collect="always" />
  </defs>
  <sodipodi:namedview
     id="base"
     pagecolor="#ffffff"
     bordercolor="#666666"
     borderopacity="1.0"
     inkscape:pageopacity="0.0"
     inkscape:pageshadow="2"
     inkscape:zoom="1"
     inkscape:cx="6.8690499"
     inkscape:cy="17.815934"
     inkscape:current-layer="layer1"
     showgrid="true"
     inkscape:grid-bbox="true"
     inkscape:document-units="px"
     inkscape:window-width="1349"
     inkscape:window-height="726"
     inkscape:window-x="114"
     inkscape:window-y="63"
     inkscape:window-maximized="0" />
  <metadata
     id="metadata3024">
    <rdf:RDF>
      <cc:Work
         rdf:about="">
        <dc:format>image/svg+xml</dc:format>
        <dc:type
           rdf:resource="http://purl.org/dc/dcmitype/StillImage" />
        <dc:title></dc:title>
      </cc:Work>
    </rdf:RDF>
  </metadata>
  <g
     id="layer1"
     inkscape:label="Layer 1"
     inkscape:groupmode="layer"
     transform="translate(0,-8)">
    <g
       transform="matrix(0.22989087,0,0,-0.22989087,-1.3937968,33.293649)"
       id="g34">
      <path
         inkscape:connector-curvature="0"
         d="M 6.407,57.811 C 6.407,30.605 27.356,8.309 54.003,6.134 l 0,0 3.302,29.025 0.229,1.985 0,7.953 0,1.506 c -0.841,0.109 -1.669,0.326 -2.448,0.666 l 0,0 C 52.86,43.988 48.389,37.525 44.176,32.148 l 0,0 c 0.193,-0.268 0.378,-0.544 0.528,-0.846 l 0,0 c 0.703,-1.416 0.811,-3.021 0.305,-4.514 l 0,0 C 44.198,24.38 41.95,22.763 39.41,22.763 l 0,0 c -0.642,0 -1.276,0.103 -1.887,0.31 l 0,0 c -3.088,1.042 -4.757,4.401 -3.72,7.493 l 0,0 c 0.815,2.405 3.066,4.023 5.604,4.023 l 0,0 c 0.641,0 1.277,-0.104 1.891,-0.311 l 0,0 c 0.186,-0.063 0.353,-0.159 0.53,-0.239 l 0,0 c 4.074,5.222 8.502,11.616 10.72,14.88 l 0,0 c -0.75,0.685 -1.388,1.498 -1.862,2.428 l 0,0 C 47.624,50.105 40.01,47.168 32.817,45.581 l 0,0 c 0.051,-0.819 -0.048,-1.66 -0.326,-2.485 l 0,0 c -0.887,-2.649 -3.365,-4.427 -6.164,-4.427 l 0,0 c -0.705,0 -1.405,0.116 -2.082,0.342 l 0,0 c -3.395,1.146 -5.225,4.842 -4.086,8.244 l 0,0 c 0.896,2.648 3.374,4.427 6.172,4.427 l 0,0 c 0.703,0 1.403,-0.115 2.08,-0.341 l 0,0 c 1.536,-0.521 2.747,-1.565 3.511,-2.863 l 0,0 c 7.181,1.566 15.121,4.656 17.905,5.788 l 0,0 c -0.018,0.165 -0.121,0.553 -0.185,1.125 l 0,0 c -6.362,1.717 -14.564,3.602 -18.453,4.422 l 0,0 c -0.851,-0.972 -2.068,-1.595 -3.42,-1.664 l 0,0 c -0.528,-0.029 -1.058,0.031 -1.568,0.176 l 0,0 c -1.261,0.353 -2.305,1.174 -2.945,2.312 l 0,0 c -0.639,1.139 -0.796,2.456 -0.438,3.71 l 0,0 c 0.568,2.021 2.358,3.452 4.449,3.56 l 0,0 c 0.531,0.027 1.058,-0.033 1.573,-0.177 l 0,0 c 1.255,-0.354 2.302,-1.175 2.938,-2.312 l 0,0 c 0.518,-0.923 0.699,-1.963 0.571,-2.99 l 0,0 c 4.559,-0.876 11.441,-2.659 17.406,-4.424 l 0,0 c 0.145,0.688 0.338,0.964 0.403,1.213 l 0,0 C 48.087,60.709 38.926,67.542 32.403,75.98 l 0,0 c -0.625,-0.222 -1.289,-0.352 -1.979,-0.352 l 0,0 c -0.642,0 -1.278,0.104 -1.889,0.311 l 0,0 c -3.087,1.043 -4.753,4.401 -3.711,7.495 l 0,0 c 0.815,2.404 3.068,4.02 5.6,4.02 l 0,0 c 0.643,0 1.278,-0.104 1.892,-0.311 l 0,0 c 1.495,-0.505 2.704,-1.562 3.404,-2.979 l 0,0 c 0.703,-1.415 0.809,-3.018 0.304,-4.513 l 0,0 C 35.777,78.917 35.383,78.269 34.9,77.706 l 0,0 C 40.652,70.333 48.668,64.089 51.372,62.082 l 0,0 c 0.19,0.303 0.396,0.591 0.619,0.863 l 0,0 c -3.706,9.172 -4.936,19.369 -5.345,25.23 l 0,0 c -0.373,0.035 -0.744,0.098 -1.103,0.219 l 0,0 c -1.237,0.417 -2.243,1.291 -2.821,2.463 l 0,0 c -0.58,1.17 -0.664,2.494 -0.246,3.726 l 0,0 c 0.668,1.989 2.527,3.324 4.625,3.324 l 0,0 c 0.531,0 1.053,-0.085 1.558,-0.255 l 0,0 c 2.551,-0.859 3.93,-3.634 3.073,-6.189 l 0,0 C 51.357,90.348 50.6,89.451 49.645,88.868 l 0,0 c 0.362,-5.402 1.462,-15.18 4.811,-23.928 l 0,0 c 0.515,0.257 1.067,0.458 1.66,0.597 l 0,0 c 0.976,0.227 1.977,0.254 2.961,0.127 l 0,0 c 0.925,2.846 3.198,10.277 3.725,16.254 l 0,0 c -2.397,1.375 -3.578,4.3 -2.664,7.018 l 0,0 c 0.815,2.406 3.066,4.024 5.604,4.024 l 0,0 c 0.641,0 1.275,-0.105 1.889,-0.312 l 0,0 c 1.497,-0.503 2.708,-1.561 3.408,-2.976 l 0,0 c 0.704,-1.416 0.81,-3.019 0.304,-4.515 l 0,0 c -0.811,-2.401 -3.049,-4.014 -5.58,-4.024 l 0,0 C 65.128,74.918 62.924,67.685 61.971,64.777 l 0,0 c 0.686,-0.344 1.33,-0.774 1.916,-1.283 l 0,0 c 5.064,4.54 10.348,9.463 13.454,12.588 l 0,0 c -1.005,1.6 -1.314,3.621 -0.668,5.548 l 0,0 c 0.898,2.649 3.377,4.427 6.166,4.427 l 0,0 c 0.705,0 1.406,-0.115 2.079,-0.341 l 0,0 c 1.648,-0.555 2.981,-1.72 3.752,-3.276 l 0,0 c 0.771,-1.559 0.89,-3.325 0.333,-4.968 l 0,0 c -0.888,-2.65 -3.364,-4.431 -6.164,-4.431 l 0,0 c -0.707,0 -1.403,0.116 -2.08,0.343 l 0,0 c -0.45,0.152 -0.871,0.351 -1.264,0.587 l 0,0 C 75.601,69.996 69.287,64.268 65.786,61.136 l 0,0 c 0.375,-0.69 0.687,-1.441 0.829,-2.254 l 0,0 c 6.285,0.918 12.849,2.054 17.356,3.037 l 0,0 c -0.01,0.653 0.083,1.317 0.303,1.97 l 0,0 c 0.814,2.406 3.066,4.023 5.602,4.023 l 0,0 c 0.642,0 1.277,-0.104 1.889,-0.309 l 0,0 c 1.497,-0.506 2.709,-1.564 3.408,-2.979 l 0,0 c 0.701,-1.416 0.807,-3.02 0.303,-4.513 l 0,0 c -0.807,-2.407 -3.058,-4.023 -5.6,-4.023 l 0,0 c -0.64,0 -1.277,0.103 -1.893,0.31 l 0,0 c -1.397,0.473 -2.498,1.422 -3.194,2.604 l 0,0 C 79.826,57.859 73.011,56.75 66.839,55.855 l 0,0 c -0.002,-0.065 0,-0.115 -0.002,-0.184 l 0,0 C 66.812,54.935 66.708,54.216 66.56,53.528 l 0,0 c 6.26,-3.04 13.085,-6.113 17.592,-7.876 l 0,0 c 1.043,1.788 2.958,2.934 5.088,2.934 l 0,0 c 0.644,0 1.279,-0.104 1.891,-0.309 l 0,0 c 1.497,-0.506 2.71,-1.565 3.409,-2.979 l 0,0 c 0.7,-1.416 0.811,-3.015 0.305,-4.514 l 0,0 c -0.811,-2.406 -3.059,-4.025 -5.599,-4.025 l 0,0 c -0.64,0 -1.276,0.106 -1.887,0.31 l 0,0 c -1.499,0.506 -2.709,1.564 -3.412,2.977 l 0,0 c -0.424,0.853 -0.628,1.773 -0.616,2.699 l 0,0 c -4.937,1.84 -11.778,5.001 -17.816,7.926 l 0,0 c -0.293,-0.537 -0.636,-1.035 -1.024,-1.488 l 0,0 c 2.505,-4.334 6.395,-10.817 9.041,-14.846 l 0,0 c 0.489,0.164 1.009,0.252 1.545,0.252 l 0,0 c 0.529,0 1.055,-0.086 1.561,-0.258 l 0,0 c 1.237,-0.414 2.236,-1.288 2.815,-2.461 l 0,0 c 0.58,-1.166 0.667,-2.49 0.251,-3.724 l 0,0 c -0.668,-1.993 -2.529,-3.328 -4.627,-3.328 l 0,0 c -0.531,0 -1.055,0.086 -1.561,0.255 l 0,0 c -1.238,0.419 -2.238,1.292 -2.817,2.462 l 0,0 c -0.579,1.168 -0.671,2.492 -0.251,3.726 l 0,0 c 0.155,0.465 0.382,0.89 0.656,1.276 l 0,0 c -3.077,4.636 -7.313,11.834 -9.014,14.757 l 0,0 c -0.499,-0.242 -1.032,-0.435 -1.606,-0.571 l 0,0 C 60.385,46.7 60.288,46.7 60.19,46.681 l 0,0 c -0.002,-0.916 -0.005,-1.959 -0.005,-3.17 l 0,0 c 0,-9.008 0.292,-16.383 -0.352,-20.7 l 0,0 C 58.733,15.45 58.396,9.229 58.293,5.945 l 0,0 c 28.633,0.009 51.846,23.226 51.846,51.866 l 0,0 c 0,28.647 -23.221,51.864 -51.862,51.864 l 0,0 c -28.649,0 -51.87,-23.217 -51.87,-51.864"
         style="fill:url(#linearGradient3911);stroke:none"
         id="path42" />
    </g>
  </g>
</svg>
