<?xml version="1.0" encoding="UTF-8" standalone="no"?>
<!-- Generator: Adobe Illustrator 16.0.0, SVG Export Plug-In . SVG Version: 6.00 Build 0)  -->

<svg
   xmlns:dc="http://purl.org/dc/elements/1.1/"
   xmlns:cc="http://creativecommons.org/ns#"
   xmlns:rdf="http://www.w3.org/1999/02/22-rdf-syntax-ns#"
   xmlns:svg="http://www.w3.org/2000/svg"
   xmlns="http://www.w3.org/2000/svg"
   xmlns:sodipodi="http://sodipodi.sourceforge.net/DTD/sodipodi-0.dtd"
   xmlns:inkscape="http://www.inkscape.org/namespaces/inkscape"
   version="1.1"
   id="Livello_1"
   x="0px"
   y="0px"
   width="500px"
   height="500px"
   viewBox="0 0 500 500"
   enable-background="new 0 0 500 500"
   xml:space="preserve"
   inkscape:version="0.48.5 r10040"
   sodipodi:docname="final_color_roboto.svg"><metadata
     id="metadata3009"><rdf:RDF><cc:Work
         rdf:about=""><dc:format>image/svg+xml</dc:format><dc:type
           rdf:resource="http://purl.org/dc/dcmitype/StillImage" /><dc:title></dc:title></cc:Work></rdf:RDF></metadata><defs
     id="defs3007" /><sodipodi:namedview
     pagecolor="#ffffff"
     bordercolor="#666666"
     borderopacity="1"
     objecttolerance="10"
     gridtolerance="10"
     guidetolerance="10"
     inkscape:pageopacity="0"
     inkscape:pageshadow="2"
     inkscape:window-width="1581"
     inkscape:window-height="879"
     id="namedview3005"
     showgrid="false"
     inkscape:zoom="1.23"
     inkscape:cx="275.85634"
     inkscape:cy="197.57095"
     inkscape:window-x="0"
     inkscape:window-y="0"
     inkscape:window-maximized="0"
     inkscape:current-layer="g2994" /><g
     id="g2994"><linearGradient
       id="SVGID_1_"
       gradientUnits="userSpaceOnUse"
       x1="101.5317"
       y1="300.125"
       x2="177.699"
       y2="196.2155"><stop
         offset="0"
         style="stop-color:#56AF31"
         id="stop2999" /><stop
         offset="1"
         style="stop-color:#3389C0"
         id="stop3001" /></linearGradient><path
       fill="url(#SVGID_1_)"
       d="M168.565,249.692c-2.142-0.724-3.297-3.046-2.57-5.191c0.576-1.71,2.172-2.788,3.881-2.788   c0.436,0,0.875,0.069,1.309,0.215c2.143,0.723,3.297,3.046,2.571,5.192c-0.575,1.712-2.168,2.788-3.88,2.788   C169.442,249.908,168.999,249.84,168.565,249.692z M161.341,232.706c0.496,0.167,1,0.247,1.498,0.247   c1.957,0,3.787-1.233,4.446-3.192c0.829-2.457-0.491-5.118-2.946-5.945c-0.496-0.169-1.001-0.247-1.5-0.247   c-1.956,0-3.781,1.234-4.446,3.193C157.568,229.219,158.883,231.876,161.341,232.706z M149.621,222.073   c0.728-2.145-0.423-4.468-2.57-5.192c-0.435-0.146-0.875-0.216-1.309-0.216c-1.712,0-3.307,1.079-3.886,2.791   c-0.721,2.145,0.432,4.465,2.576,5.19c0.434,0.146,0.875,0.216,1.31,0.216C147.452,224.862,149.044,223.785,149.621,222.073z    M138.276,198.135c-28.648,0-51.869,23.218-51.869,51.864c0,27.205,20.949,49.502,47.596,51.677l3.302-29.025l0.229-1.984v-7.953   c0-0.543,0-1.035,0-1.506c-0.842-0.109-1.669-0.326-2.448-0.666c-2.227,3.281-6.696,9.743-10.91,15.121   c0.193,0.268,0.378,0.544,0.528,0.846c0.703,1.416,0.811,3.021,0.305,4.514c-0.811,2.408-3.059,4.025-5.599,4.025   c-0.642,0-1.276-0.104-1.888-0.311c-3.088-1.041-4.756-4.4-3.72-7.492c0.815-2.406,3.066-4.023,5.604-4.023   c0.641,0,1.276,0.104,1.891,0.311c0.186,0.063,0.354,0.159,0.53,0.239c4.073-5.222,8.502-11.616,10.72-14.88   c-0.75-0.686-1.389-1.498-1.861-2.428c-3.063,1.242-10.676,4.179-17.87,5.766c0.052,0.819-0.048,1.66-0.325,2.484   c-0.887,2.65-3.365,4.428-6.164,4.428c-0.705,0-1.405-0.115-2.082-0.342c-3.395-1.146-5.226-4.842-4.086-8.244   c0.896-2.648,3.374-4.428,6.172-4.428c0.703,0,1.402,0.115,2.08,0.342c1.536,0.521,2.747,1.564,3.511,2.863   c7.182-1.566,15.121-4.656,17.905-5.789c-0.019-0.164-0.121-0.552-0.185-1.124c-6.362-1.717-14.564-3.603-18.454-4.422   c-0.851,0.972-2.067,1.595-3.42,1.664c-0.527,0.028-1.058-0.031-1.567-0.176c-1.262-0.354-2.306-1.175-2.945-2.313   c-0.639-1.138-0.796-2.455-0.438-3.709c0.568-2.021,2.358-3.452,4.45-3.56c0.53-0.027,1.058,0.032,1.572,0.177   c1.255,0.354,2.302,1.175,2.938,2.312c0.518,0.923,0.698,1.962,0.57,2.989c4.56,0.877,11.44,2.66,17.406,4.425   c0.145-0.688,0.338-0.964,0.403-1.213c-2.071-1.491-11.232-8.325-17.756-16.763c-0.624,0.223-1.288,0.352-1.978,0.352   c-0.643,0-1.279-0.104-1.891-0.312c-3.086-1.042-4.753-4.4-3.71-7.494c0.815-2.404,3.067-4.021,5.601-4.021   c0.643,0,1.277,0.104,1.892,0.312c1.495,0.505,2.703,1.562,3.403,2.979c0.703,1.416,0.81,3.019,0.305,4.514   c-0.248,0.733-0.642,1.381-1.124,1.944c5.752,7.373,13.768,13.618,16.472,15.624c0.189-0.303,0.396-0.591,0.619-0.863   c-3.706-9.171-4.937-19.369-5.345-25.229c-0.374-0.035-0.745-0.098-1.104-0.219c-1.237-0.417-2.243-1.291-2.821-2.463   c-0.58-1.17-0.664-2.494-0.245-3.727c0.668-1.988,2.526-3.323,4.624-3.323c0.531,0,1.053,0.085,1.559,0.255   c2.551,0.858,3.93,3.634,3.073,6.189c-0.376,1.114-1.133,2.011-2.088,2.595c0.362,5.402,1.463,15.18,4.812,23.927   c0.515-0.256,1.066-0.458,1.66-0.597c0.976-0.227,1.977-0.254,2.961-0.127c0.925-2.845,3.198-10.277,3.725-16.254   c-2.396-1.375-3.578-4.3-2.664-7.018c0.815-2.406,3.066-4.024,5.604-4.024c0.641,0,1.274,0.105,1.89,0.313   c1.496,0.503,2.707,1.561,3.407,2.977c0.703,1.415,0.81,3.019,0.304,4.514c-0.811,2.401-3.049,4.015-5.58,4.024   c-0.634,6.216-2.839,13.449-3.791,16.357c0.686,0.344,1.33,0.773,1.915,1.282c5.064-4.54,10.348-9.462,13.454-12.588   c-1.005-1.599-1.314-3.621-0.668-5.548c0.898-2.648,3.377-4.427,6.166-4.427c0.705,0,1.406,0.115,2.079,0.341   c1.647,0.556,2.981,1.72,3.752,3.276c0.771,1.559,0.89,3.324,0.333,4.968c-0.889,2.65-3.363,4.431-6.164,4.431   c-0.707,0-1.403-0.115-2.08-0.343c-0.45-0.152-0.871-0.352-1.264-0.587c-3.895,3.975-10.208,9.703-13.709,12.835   c0.375,0.69,0.687,1.44,0.829,2.254c6.285-0.918,12.849-2.055,17.355-3.037c-0.01-0.653,0.083-1.317,0.304-1.97   c0.813-2.406,3.065-4.023,5.602-4.023c0.643,0,1.277,0.104,1.889,0.31c1.498,0.506,2.709,1.563,3.408,2.979   c0.701,1.415,0.808,3.02,0.303,4.513c-0.807,2.406-3.058,4.022-5.6,4.022c-0.64,0-1.277-0.104-1.893-0.311   c-1.397-0.472-2.499-1.422-3.194-2.604c-4.963,1.143-11.778,2.252-17.95,3.147c-0.002,0.064,0,0.115-0.002,0.184   c-0.024,0.736-0.129,1.455-0.276,2.143c6.26,3.04,13.084,6.114,17.591,7.876c1.044-1.787,2.959-2.933,5.089-2.933   c0.644,0,1.279,0.104,1.891,0.309c1.497,0.506,2.71,1.564,3.409,2.979c0.7,1.416,0.811,3.016,0.305,4.514   c-0.811,2.406-3.059,4.025-5.599,4.025c-0.641,0-1.276-0.105-1.888-0.311c-1.498-0.506-2.709-1.563-3.412-2.977   c-0.424-0.853-0.627-1.773-0.615-2.698c-4.938-1.841-11.778-5.002-17.816-7.927c-0.293,0.537-0.636,1.035-1.023,1.488   c2.505,4.334,6.395,10.816,9.041,14.846c0.489-0.163,1.009-0.252,1.545-0.252c0.529,0,1.055,0.086,1.561,0.258   c1.237,0.414,2.236,1.289,2.815,2.461c0.579,1.166,0.667,2.49,0.251,3.725c-0.668,1.992-2.529,3.328-4.627,3.328   c-0.531,0-1.055-0.086-1.561-0.256c-1.238-0.418-2.238-1.291-2.818-2.461c-0.578-1.168-0.67-2.492-0.25-3.727   c0.155-0.465,0.382-0.89,0.655-1.275c-3.076-4.637-7.313-11.835-9.014-14.758c-0.499,0.242-1.032,0.436-1.606,0.57   c-0.098,0.023-0.195,0.023-0.293,0.043c-0.003,0.916-0.006,1.959-0.006,3.17c0,9.008,0.293,16.383-0.352,20.699   c-1.1,7.361-1.437,13.583-1.54,16.867c28.634-0.01,51.847-23.227,51.847-51.866C190.14,221.353,166.918,198.135,138.276,198.135z    M155.077,281.178c1.279,0,2.475-0.807,2.907-2.09c0.541-1.607-0.319-3.35-1.927-3.891c-0.324-0.109-0.656-0.162-0.98-0.162   c-1.282,0-2.479,0.811-2.91,2.092c-0.543,1.605,0.318,3.348,1.93,3.889C154.421,281.125,154.753,281.178,155.077,281.178z    M167.937,269.02c0.436,0.145,0.876,0.215,1.31,0.215c1.708,0,3.302-1.076,3.88-2.787c0.721-2.145-0.426-4.471-2.574-5.191   c-0.434-0.146-0.877-0.217-1.312-0.217c-1.71,0-3.306,1.078-3.879,2.789C164.638,265.973,165.79,268.297,167.937,269.02z    M119.407,275.035c-1.709,0-3.307,1.078-3.885,2.789c-0.719,2.146,0.431,4.469,2.578,5.191c0.434,0.146,0.875,0.219,1.31,0.219   c1.707,0,3.302-1.08,3.878-2.789c0.725-2.146-0.431-4.471-2.572-5.195C120.281,275.105,119.841,275.035,119.407,275.035z    M128.081,211.88c-0.325-0.109-0.656-0.163-0.98-0.163c-1.279,0-2.474,0.809-2.904,2.089c-0.547,1.607,0.315,3.349,1.926,3.89   c0.324,0.109,0.656,0.161,0.98,0.161c1.281,0,2.477-0.807,2.906-2.089C130.551,214.162,129.692,212.42,128.081,211.88z    M106.331,257.941c-1.962,0-3.79,1.234-4.452,3.193c-0.824,2.459,0.49,5.115,2.948,5.945c0.496,0.166,1.004,0.246,1.5,0.246   c1.959,0,3.785-1.232,4.444-3.189c0.829-2.457-0.49-5.119-2.942-5.949C107.333,258.021,106.827,257.941,106.331,257.941z    M107.358,241.716c-1.279,0.066-2.431,0.937-2.794,2.237c-0.461,1.633,0.49,3.327,2.128,3.785c0.328,0.093,0.658,0.128,0.983,0.11   c1.277-0.065,2.434-0.934,2.796-2.235c0.459-1.634-0.492-3.328-2.123-3.785C108.019,241.734,107.685,241.699,107.358,241.716z    M111.733,222.387c-0.434-0.146-0.873-0.216-1.309-0.216c-1.71,0-3.302,1.078-3.884,2.789c-0.721,2.146,0.433,4.468,2.573,5.19   c0.434,0.146,0.877,0.216,1.311,0.216c1.709,0,3.304-1.078,3.88-2.787C115.028,225.436,113.876,223.109,111.733,222.387z"
       id="path3003" /><text
       xml:space="preserve"
       style="font-size:43.26438904px;font-style:normal;font-weight:normal;line-height:125%;letter-spacing:0px;word-spacing:0px;fill:#3389c0;fill-opacity:1;stroke:none;font-family:Sans"
       x="201.43626"
       y="279.26099"
       id="text3019"
       sodipodi:linespacing="125%"><tspan
         sodipodi:role="line"
         id="tspan3021"
         x="201.43626"
         y="279.26099"
         style="font-size:77.87590027px;font-style:normal;font-variant:normal;font-weight:500;font-stretch:normal;text-align:start;line-height:125%;writing-mode:lr-tb;text-anchor:start;fill:#3389c0;fill-opacity:1;font-family:Roboto;-inkscape-font-specification:Roboto Medium">antha</tspan></text>
</g><flowRoot
     xml:space="preserve"
     id="flowRoot3011"
     style="font-size:72px;font-style:normal;font-weight:500;line-height:125%;letter-spacing:0px;word-spacing:0px;fill:#000000;fill-opacity:1;stroke:none;font-family:Roboto;-inkscape-font-specification:Roboto Medium;font-stretch:normal;font-variant:normal;text-anchor:start;text-align:start;writing-mode:lr"><flowRegion
       id="flowRegion3013"><rect
         id="rect3015"
         width="262.71185"
         height="52.966103"
         x="133.47458"
         y="383.47458"
         style="-inkscape-font-specification:Roboto Medium;font-family:Roboto;font-weight:500;font-style:normal;font-stretch:normal;font-variant:normal;font-size:72px;text-anchor:start;text-align:start;writing-mode:lr;line-height:125%" /></flowRegion><flowPara
       id="flowPara3017">antha</flowPara></flowRoot></svg>