<?xml version="1.0" encoding="UTF-8" standalone="no"?>
<!-- Generator: Adobe Illustrator 16.0.0, SVG Export Plug-In . SVG Version: 6.00 Build 0)  -->

<svg
   xmlns:dc="http://purl.org/dc/elements/1.1/"
   xmlns:cc="http://creativecommons.org/ns#"
   xmlns:rdf="http://www.w3.org/1999/02/22-rdf-syntax-ns#"
   xmlns:svg="http://www.w3.org/2000/svg"
   xmlns="http://www.w3.org/2000/svg"
   xmlns:sodipodi="http://sodipodi.sourceforge.net/DTD/sodipodi-0.dtd"
   xmlns:inkscape="http://www.inkscape.org/namespaces/inkscape"
   version="1.1"
   id="Livello_1"
   x="0px"
   y="0px"
   width="121"
   height="40"
   viewBox="0 0 121 40"
   enable-background="new 0 0 500 500"
   xml:space="preserve"
   inkscape:version="0.48.5 r10040"
   sodipodi:docname="black_roboto_121x40.svg"><metadata
     id="metadata3009"><rdf:RDF><cc:Work
         rdf:about=""><dc:format>image/svg+xml</dc:format><dc:type
           rdf:resource="http://purl.org/dc/dcmitype/StillImage" /><dc:title></dc:title></cc:Work></rdf:RDF></metadata><defs
     id="defs3007" /><sodipodi:namedview
     pagecolor="#ffffff"
     bordercolor="#666666"
     borderopacity="1"
     objecttolerance="10"
     gridtolerance="10"
     guidetolerance="10"
     inkscape:pageopacity="0"
     inkscape:pageshadow="2"
     inkscape:window-width="1581"
     inkscape:window-height="879"
     id="namedview3005"
     showgrid="false"
     inkscape:zoom="4.92"
     inkscape:cx="83.578478"
     inkscape:cy="37.546765"
     inkscape:window-x="0"
     inkscape:window-y="0"
     inkscape:window-maximized="0"
     inkscape:current-layer="g2994" /><g
     id="g2994"
     transform="translate(0,-460)"><linearGradient
       id="SVGID_1_"
       gradientUnits="userSpaceOnUse"
       x1="101.5317"
       y1="300.125"
       x2="177.69901"
       y2="196.2155"
       gradientTransform="matrix(0.38866265,0,0,0.38866265,-33.355036,382.91594)"><stop
         offset="0"
         style="stop-color:#56AF31"
         id="stop2999" /><stop
         offset="1"
         style="stop-color:#3389C0"
         id="stop3001" /></linearGradient><g
       id="g3833"
       transform="matrix(0.99215282,0,0,0.99215282,0.00179024,3.9254747)"><path
         style="fill:#ffffff;fill-opacity:1"
         inkscape:connector-curvature="0"
         id="path3003"
         d="m 32.159885,479.9619 c -0.832516,-0.28139 -1.281421,-1.18387 -0.998863,-2.01755 0.223869,-0.66461 0.844175,-1.08359 1.508399,-1.08359 0.169457,0 0.34008,0.0268 0.50876,0.0836 0.832904,0.28101 1.28142,1.18387 0.999251,2.01794 -0.223481,0.66539 -0.84262,1.08359 -1.508011,1.08359 -0.168679,0 -0.340857,-0.0264 -0.509536,-0.0839 z m -2.807699,-6.60182 c 0.192776,0.0649 0.388662,0.096 0.582216,0.096 0.760613,0 1.471866,-0.47922 1.727994,-1.24061 0.322202,-0.95495 -0.190833,-1.98918 -1.145,-2.3106 -0.192777,-0.0657 -0.389051,-0.096 -0.582994,-0.096 -0.760224,0 -1.469533,0.47961 -1.727994,1.241 -0.320647,0.95494 0.190445,1.98762 1.145778,2.31021 z m -4.555127,-4.13265 c 0.282947,-0.83368 -0.164404,-1.73655 -0.998863,-2.01794 -0.169068,-0.0567 -0.34008,-0.084 -0.508759,-0.084 -0.665391,0 -1.285308,0.41937 -1.510343,1.08476 -0.280226,0.83368 0.167902,1.73538 1.001195,2.01716 0.168679,0.0567 0.34008,0.084 0.509148,0.084 0.664613,0 1.283364,-0.41859 1.507622,-1.08398 z m -4.409378,-9.30381 c -11.1344074,0 -20.15954279,9.02397 -20.15954279,20.1576 0,10.57357 8.14209389,19.23958 18.49878779,20.08492 l 1.283364,-11.28093 0.089,-0.77111 v -3.09103 c 0,-0.21105 0,-0.40227 0,-0.58533 -0.327254,-0.0424 -0.648678,-0.1267 -0.951446,-0.25885 -0.865552,1.2752 -2.602486,3.78674 -4.24031,5.87697 0.07501,0.10416 0.146914,0.21143 0.205214,0.32881 0.27323,0.55034 0.315205,1.17415 0.118542,1.75442 -0.315205,0.9359 -1.188919,1.56437 -2.176122,1.56437 -0.249522,0 -0.495934,-0.0404 -0.733795,-0.12088 -1.200191,-0.40459 -1.84848,-1.71011 -1.445825,-2.91186 0.31676,-0.93512 1.191639,-1.56359 2.178065,-1.56359 0.249133,0 0.495934,0.0404 0.734961,0.12088 0.07229,0.0245 0.137587,0.0618 0.205991,0.0929 1.583023,-2.0296 3.30441,-4.51471 4.166464,-5.7833 -0.291497,-0.26663 -0.539852,-0.58222 -0.723301,-0.94368 -1.190474,0.48272 -4.149363,1.62423 -6.945402,2.24103 0.02021,0.31832 -0.01866,0.64518 -0.126315,0.96544 -0.344744,1.02996 -1.30785,1.721 -2.3957168,1.721 -0.2740072,0 -0.546071,-0.0447 -0.8091956,-0.13292 -1.3195097,-0.44541 -2.0311511,-1.88191 -1.5880756,-3.20414 0.3482417,-1.02918 1.3113478,-1.721 2.3988259,-1.721 0.2732298,0 0.544905,0.0447 0.8084183,0.13293 0.5969858,0.20249 1.0676563,0.60786 1.3645948,1.11274 2.791375,-0.60865 5.876968,-1.80962 6.959005,-2.24997 -0.0074,-0.0637 -0.04703,-0.21454 -0.0719,-0.43686 -2.472672,-0.66733 -5.660483,-1.40035 -7.1723806,-1.71866 -0.3307519,0.37778 -0.8033657,0.61991 -1.3292263,0.64673 -0.2048252,0.0109 -0.4112051,-0.012 -0.6090344,-0.0684 -0.4904923,-0.13759 -0.8962561,-0.45668 -1.1446115,-0.89898 -0.2483554,-0.4423 -0.3093755,-0.95417 -0.1702342,-1.44155 0.2207603,-0.78549 0.9164665,-1.34166 1.7295488,-1.38364 0.2059912,-0.0105 0.4112051,0.0124 0.6109777,0.0688 0.4877716,0.13759 0.8947014,0.45668 1.1418905,0.89859 0.201328,0.35874 0.271287,0.76256 0.221538,1.16171 1.772302,0.34086 4.446301,1.03385 6.765062,1.71984 0.05636,-0.2674 0.131368,-0.37467 0.156631,-0.47145 -0.80492,-0.5795 -4.365459,-3.23562 -6.901094,-6.51515 -0.242525,0.0867 -0.5005973,0.13681 -0.7687746,0.13681 -0.24991,0 -0.4970995,-0.0404 -0.734961,-0.12127 -1.199413,-0.40498 -1.8473136,-1.71011 -1.4419385,-2.91263 0.3167601,-0.93435 1.1920284,-1.56282 2.1768995,-1.56282 0.2499101,0 0.4963226,0.0404 0.7353496,0.12127 0.581051,0.19627 1.050555,0.60709 1.322619,1.15782 0.27323,0.55035 0.314817,1.17337 0.118542,1.75442 -0.09639,0.28489 -0.249521,0.53675 -0.436857,0.75557 2.235588,2.8656 5.351108,5.2928 6.402052,6.07246 0.07346,-0.11776 0.15391,-0.2297 0.240582,-0.33542 -1.440384,-3.56442 -1.918828,-7.528 -2.077402,-9.80557 -0.14536,-0.0136 -0.289554,-0.0381 -0.429084,-0.0851 -0.480775,-0.16208 -0.87177,-0.50177 -1.096417,-0.95728 -0.225424,-0.45473 -0.258072,-0.96932 -0.09522,-1.44854 0.259626,-0.77267 0.981762,-1.29153 1.797176,-1.29153 0.20638,0 0.409262,0.033 0.605925,0.0991 0.991478,0.33347 1.527444,1.4124 1.19436,2.40543 -0.146137,0.43297 -0.440354,0.7816 -0.811527,1.00858 0.140696,2.09956 0.568613,5.8999 1.870244,9.29953 0.200162,-0.0995 0.414315,-0.178 0.64518,-0.23203 0.379335,-0.0882 0.768386,-0.0987 1.15083,-0.0494 0.359513,-1.10574 1.242944,-3.99429 1.447769,-6.31732 -0.931236,-0.53441 -1.390635,-1.67125 -1.035397,-2.72764 0.31676,-0.93512 1.191639,-1.56398 2.178065,-1.56398 0.249133,0 0.495156,0.0408 0.734573,0.12166 0.581439,0.19549 1.052109,0.6067 1.324173,1.15705 0.27323,0.54995 0.314817,1.17337 0.118154,1.75442 -0.315206,0.93318 -1.185033,1.56048 -2.168738,1.56398 -0.246412,2.41592 -1.103413,5.22712 -1.47342,6.35735 0.266622,0.1337 0.516921,0.30044 0.744289,0.49827 1.968188,-1.76453 4.021881,-3.67753 5.229067,-4.89249 -0.390606,-0.62147 -0.510703,-1.40735 -0.259626,-2.1563 0.349019,-1.02918 1.312513,-1.72061 2.396494,-1.72061 0.274007,0 0.546459,0.0447 0.808029,0.13254 0.640128,0.21609 1.158604,0.6685 1.458262,1.27325 0.299659,0.60593 0.34591,1.29192 0.129425,1.93088 -0.345521,1.02996 -1.307072,1.72217 -2.395716,1.72217 -0.274785,0 -0.545294,-0.0447 -0.808419,-0.13332 -0.174898,-0.0591 -0.338525,-0.13681 -0.491269,-0.22814 -1.513841,1.54493 -3.967469,3.77119 -5.328177,4.98848 0.145749,0.26818 0.267011,0.55968 0.322202,0.87605 2.442744,-0.35679 4.993926,-0.7987 6.74524,-1.18037 -0.0039,-0.2538 0.03226,-0.51187 0.118153,-0.76566 0.315983,-0.93513 1.191251,-1.56359 2.177289,-1.56359 0.24991,0 0.496322,0.0404 0.734183,0.12048 0.582217,0.19666 1.052887,0.60748 1.324563,1.15783 0.272452,0.54995 0.314039,1.17376 0.117764,1.75403 -0.31365,0.93512 -1.18853,1.5632 -2.17651,1.5632 -0.248744,0 -0.496323,-0.0404 -0.735739,-0.12087 -0.542962,-0.18345 -0.971268,-0.55268 -1.241388,-1.01208 -1.928933,0.44424 -4.577669,0.87527 -6.976495,1.22312 -7.77e-4,0.0249 0,0.0447 -7.77e-4,0.0715 -0.0093,0.28605 -0.05014,0.5655 -0.107271,0.8329 2.433028,1.18154 5.085262,2.37628 6.836965,3.06111 0.405763,-0.69454 1.150052,-1.13995 1.977904,-1.13995 0.250299,0 0.497099,0.0404 0.734961,0.1201 0.581828,0.19666 1.053276,0.60787 1.324951,1.15782 0.272064,0.55035 0.315205,1.17221 0.118542,1.75443 -0.315205,0.93512 -1.188919,1.56436 -2.176122,1.56436 -0.249133,0 -0.495934,-0.0408 -0.733795,-0.12087 -0.582217,-0.19666 -1.052887,-0.60748 -1.326117,-1.15705 -0.164793,-0.33153 -0.243692,-0.6891 -0.239028,-1.04861 -1.919216,-0.71553 -4.577669,-1.94409 -6.924414,-3.08093 -0.113878,0.20871 -0.247189,0.40227 -0.397602,0.57833 0.9736,1.68446 2.485498,4.20378 3.5139,5.77009 0.190056,-0.0634 0.39216,-0.098 0.600483,-0.098 0.205603,0 0.410039,0.0334 0.606703,0.10028 0.480775,0.1609 0.869049,0.50098 1.094085,0.9565 0.225036,0.45318 0.259238,0.96777 0.09755,1.44776 -0.259626,0.77422 -0.982927,1.29347 -1.798342,1.29347 -0.20638,0 -0.410039,-0.0334 -0.606702,-0.0995 -0.481164,-0.16246 -0.869827,-0.50177 -1.095251,-0.9565 -0.224647,-0.45396 -0.260404,-0.96855 -0.09717,-1.44855 0.06024,-0.18073 0.148469,-0.34591 0.254574,-0.49554 -1.195526,-1.80223 -2.84229,-4.59983 -3.503405,-5.73589 -0.193943,0.0941 -0.4011,0.16946 -0.624192,0.22154 -0.03809,0.009 -0.07579,0.009 -0.113879,0.0167 -0.0012,0.35602 -0.0023,0.76139 -0.0023,1.23206 0,3.50108 0.113879,6.36746 -0.136809,8.04493 -0.427529,2.86095 -0.558508,5.27921 -0.59854,6.55558 11.128966,-0.004 20.150993,-9.02747 20.150993,-20.15838 0,-11.13402 -9.025525,-20.15799 -20.157601,-20.15799 z m 6.529922,32.27571 c 0.497099,0 0.96194,-0.31365 1.129842,-0.8123 0.210266,-0.62458 -0.123983,-1.30202 -0.748953,-1.51229 -0.125927,-0.0424 -0.254963,-0.063 -0.380889,-0.063 -0.498266,0 -0.963495,0.3152 -1.131009,0.81308 -0.211044,0.6238 0.123595,1.30124 0.750119,1.51151 0.125927,0.0424 0.254963,0.063 0.38089,0.063 z m 4.998201,-4.72536 c 0.169457,0.0564 0.340469,0.0836 0.509148,0.0836 0.663836,0 1.283365,-0.4182 1.508012,-1.0832 0.280225,-0.83368 -0.165571,-1.73771 -1.000418,-2.01755 -0.16868,-0.0567 -0.340857,-0.0843 -0.509926,-0.0843 -0.664613,0 -1.284918,0.41898 -1.507622,1.08398 -0.281392,0.8333 0.166348,1.73655 1.000806,2.01755 z m -18.861798,2.33781 c -0.664225,0 -1.285308,0.41898 -1.509955,1.08398 -0.279448,0.83407 0.167514,1.73693 1.001973,2.01755 0.168679,0.0567 0.340079,0.0851 0.509148,0.0851 0.663447,0 1.283364,-0.41975 1.507234,-1.08398 0.28178,-0.83407 -0.167514,-1.73771 -0.999641,-2.0191 -0.169068,-0.0564 -0.34008,-0.0836 -0.508759,-0.0836 z m 3.37126,-24.54599 c -0.126316,-0.0424 -0.254963,-0.0633 -0.38089,-0.0633 -0.497099,0 -0.961551,0.31442 -1.128676,0.81191 -0.212599,0.62458 0.122429,1.30163 0.748564,1.5119 0.125927,0.0424 0.254963,0.0626 0.38089,0.0626 0.497876,0 0.962717,-0.31365 1.129453,-0.81191 0.210655,-0.62419 -0.123206,-1.30124 -0.749341,-1.51112 z m -8.4534131,17.90219 c -0.7625562,0 -1.4730315,0.47961 -1.7303262,1.241 -0.320258,0.95572 0.1904447,1.98801 1.1457775,2.3106 0.1927767,0.0645 0.3902173,0.0956 0.582994,0.0956 0.7613902,0 1.4710882,-0.47883 1.7272169,-1.23945 0.3222009,-0.95494 -0.1904447,-1.98956 -1.1434456,-2.31215 -0.1927767,-0.0645 -0.38944,-0.0956 -0.5822166,-0.0956 z m 0.3991565,-6.30605 c -0.4970995,0.0257 -0.9448389,0.36417 -1.0859234,0.86944 -0.1791735,0.63468 0.1904447,1.29308 0.8270741,1.47108 0.1274813,0.0362 0.25574,0.0498 0.3820554,0.0428 0.4963222,-0.0253 0.9460049,-0.36301 1.0867008,-0.86866 0.1783961,-0.63508 -0.1912221,-1.29347 -0.8251309,-1.47109 -0.12787,-0.0365 -0.2576833,-0.0501 -0.384776,-0.0435 z m 1.7003996,-7.51246 c -0.1686801,-0.0568 -0.339303,-0.084 -0.5087599,-0.084 -0.6646131,0 -1.2833641,0.41897 -1.5095657,1.08398 -0.2802258,0.83407 0.1682909,1.73654 1.000029,2.01715 0.1686796,0.0568 0.3408571,0.084 0.5095367,0.084 0.6642249,0 1.2841419,-0.41898 1.5080109,-1.08321 0.281392,-0.8329 -0.166347,-1.73732 -0.999251,-2.01793 z" /><text
         sodipodi:linespacing="125%"
         id="text3019"
         y="491.45425"
         x="44.935719"
         style="font-size:16.81525230000000093px;font-style:normal;font-weight:normal;line-height:125%;letter-spacing:0px;word-spacing:0px;fill:#ffffff;fill-opacity:1;stroke:none;font-family:Sans"
         xml:space="preserve"><tspan
           style="font-size:30.26745414999999895px;font-style:normal;font-variant:normal;font-weight:500;font-stretch:normal;text-align:start;line-height:125%;writing-mode:lr-tb;text-anchor:start;fill:#ffffff;fill-opacity:1;font-family:Roboto;-inkscape-font-specification:Roboto Medium"
           y="491.45425"
           x="44.935719"
           id="tspan3021"
           sodipodi:role="line">antha</tspan></text>
</g></g><flowRoot
     xml:space="preserve"
     id="flowRoot3011"
     style="font-size:72px;font-style:normal;font-variant:normal;font-weight:500;font-stretch:normal;text-align:start;line-height:125%;letter-spacing:0px;word-spacing:0px;writing-mode:lr-tb;text-anchor:start;fill:#000000;fill-opacity:1;stroke:none;font-family:Roboto;-inkscape-font-specification:Roboto Medium"
     transform="translate(0,-460)"><flowRegion
       id="flowRegion3013"><rect
         id="rect3015"
         width="262.71185"
         height="52.966103"
         x="133.47458"
         y="383.47458"
         style="font-size:72px;font-style:normal;font-variant:normal;font-weight:500;font-stretch:normal;text-align:start;line-height:125%;writing-mode:lr-tb;text-anchor:start;font-family:Roboto;-inkscape-font-specification:Roboto Medium" /></flowRegion><flowPara
       id="flowPara3017">antha</flowPara></flowRoot></svg>