<?xml version="1.0" encoding="UTF-8" standalone="no"?>
<!-- Created with Inkscape (http://www.inkscape.org/) -->

<svg
   xmlns:dc="http://purl.org/dc/elements/1.1/"
   xmlns:cc="http://creativecommons.org/ns#"
   xmlns:rdf="http://www.w3.org/1999/02/22-rdf-syntax-ns#"
   xmlns:svg="http://www.w3.org/2000/svg"
   xmlns="http://www.w3.org/2000/svg"
   xmlns:xlink="http://www.w3.org/1999/xlink"
   xmlns:sodipodi="http://sodipodi.sourceforge.net/DTD/sodipodi-0.dtd"
   xmlns:inkscape="http://www.inkscape.org/namespaces/inkscape"
   width="32px"
   height="32px"
   id="svg3019"
   version="1.1"
   inkscape:version="0.48.5 r10040"
   sodipodi:docname="New document 2">
  <defs
     id="defs3021">
    <linearGradient
       id="SVGID_1_"
       gradientUnits="userSpaceOnUse"
       x1="101.5317"
       y1="300.125"
       x2="177.69901"
       y2="196.2155">
      <stop
         offset="0"
         style="stop-color:#56AF31"
         id="stop2991" />
      <stop
         offset="1"
         style="stop-color:#3389C0"
         id="stop2993" />
    </linearGradient>
    <linearGradient
       gradientTransform="matrix(0.31109434,0,0,0.31109434,-26.874073,-61.79849)"
       y2="196.2155"
       x2="177.69901"
       y1="300.125"
       x1="101.5317"
       gradientUnits="userSpaceOnUse"
       id="linearGradient3017"
       xlink:href="#SVGID_1_"
       inkscape:collect="always" />
  </defs>
  <sodipodi:namedview
     id="base"
     pagecolor="#ffffff"
     bordercolor="#666666"
     borderopacity="1.0"
     inkscape:pageopacity="0.0"
     inkscape:pageshadow="2"
     inkscape:zoom="1"
     inkscape:cx="15.996607"
     inkscape:cy="15.996607"
     inkscape:current-layer="layer1"
     showgrid="true"
     inkscape:grid-bbox="true"
     inkscape:document-units="px"
     inkscape:window-width="703"
     inkscape:window-height="609"
     inkscape:window-x="881"
     inkscape:window-y="77"
     inkscape:window-maximized="0" />
  <metadata
     id="metadata3024">
    <rdf:RDF>
      <cc:Work
         rdf:about="">
        <dc:format>image/svg+xml</dc:format>
        <dc:type
           rdf:resource="http://purl.org/dc/dcmitype/StillImage" />
        <dc:title></dc:title>
      </cc:Work>
    </rdf:RDF>
  </metadata>
  <g
     id="layer1"
     inkscape:label="Layer 1"
     inkscape:groupmode="layer">
    <path
       style="fill:url(#linearGradient3017)"
       inkscape:connector-curvature="0"
       d="m 25.565545,15.879276 c -0.666364,-0.225231 -1.025679,-0.947592 -0.799512,-1.61489 0.17919,-0.531971 0.675697,-0.86733 1.207356,-0.86733 0.135634,0 0.272208,0.02146 0.407223,0.06688 0.666675,0.224921 1.025678,0.947595 0.799823,1.615203 -0.178879,0.532592 -0.674452,0.86733 -1.207046,0.86733 -0.135019,0 -0.272829,-0.02115 -0.407844,-0.06719 z M 23.3182,10.595028 c 0.154307,0.05196 0.311093,0.07684 0.466018,0.07684 0.608812,0 1.178115,-0.383578 1.383126,-0.9930125 0.257898,-0.7643593 -0.152747,-1.5921812 -0.916484,-1.8494565 -0.154308,-0.05257 -0.311406,-0.076839 -0.466642,-0.076839 -0.608499,0 -1.176247,0.3838902 -1.383125,0.9933243 C 22.14444,9.510243 22.553525,10.33682 23.3182,10.595028 z M 19.672174,7.287163 c 0.226477,-0.6672978 -0.1316,-1.3899694 -0.799512,-1.6152029 -0.135334,-0.045416 -0.272208,-0.067194 -0.407224,-0.067194 -0.532592,0 -1.028789,0.3356707 -1.208912,0.8682647 -0.224299,0.6672978 0.134389,1.3890365 0.801379,1.6145788 0.135019,0.045416 0.272208,0.067194 0.407533,0.067194 0.531972,0 1.027234,-0.3350499 1.206736,-0.8676422 z m -3.529366,-7.4469767 c -8.9122312,0 -16.13615242,7.2229882 -16.13615242,16.1345967 0,8.463321 6.51711522,15.399792 14.80684642,16.076422 l 1.027234,-9.029514 0.07125,-0.617211 v -2.474133 c 0,-0.168924 0,-0.321983 0,-0.468507 -0.261942,-0.03391 -0.519218,-0.101422 -0.76156,-0.20719 -0.692806,1.020701 -2.083088,3.030992 -3.394039,4.704057 0.06004,0.08338 0.11759,0.169236 0.164259,0.263187 0.218698,0.440509 0.252297,0.939816 0.09488,1.404279 -0.252299,0.749115 -0.951638,1.252155 -1.741818,1.252155 -0.199722,0 -0.3969555,-0.03235 -0.5873453,-0.09676 C 8.7256997,26.457722 8.2067952,25.412756 8.5290885,24.450852 8.7826305,23.70236 9.482903,23.19932 10.27246,23.19932 c 0.199412,0 0.396957,0.03235 0.58828,0.09676 0.05786,0.0196 0.110121,0.04947 0.16488,0.07435 1.267087,-1.624534 2.644924,-3.61367 3.334932,-4.629083 -0.233321,-0.21341 -0.43211,-0.466019 -0.578948,-0.755336 -0.952881,0.386378 -3.321242,1.300062 -5.5592552,1.793769 0.016184,0.254787 -0.014971,0.516416 -0.1011066,0.772758 -0.2759412,0.824399 -1.0468324,1.377525 -1.9175853,1.377525 -0.2193224,0 -0.4370879,-0.03577 -0.647699,-0.106401 -1.0561645,-0.356515 -1.6257784,-1.50632 -1.2711313,-2.564662 0.2787399,-0.823779 1.0496327,-1.377525 1.9200736,-1.377525 0.2186999,0 0.4361549,0.03577 0.6470765,0.106401 0.4778409,0.16208 0.8545768,0.486553 1.0922531,0.890664 2.2342792,-0.487175 4.7040562,-1.448455 5.5701432,-1.800926 -0.006,-0.05101 -0.03765,-0.171724 -0.05755,-0.349669 C 11.47764,16.193791 8.9260441,15.607067 7.7158872,15.352282 7.4511456,15.654666 7.072856,15.848477 6.6519443,15.869943 6.4879989,15.87861 6.322807,15.86033 6.1644607,15.815182 5.7718592,15.705061 5.447076,15.449646 5.248287,15.095621 5.0494979,14.741595 5.000656,14.331884 5.112023,13.941771 5.2887249,13.31305 5.8455838,12.867873 6.4963935,12.834276 c 0.1648798,-0.0084 0.3291372,0.0099 0.4890405,0.05506 0.3904221,0.110121 0.7161382,0.365537 0.9139943,0.719251 0.1611467,0.287139 0.2171446,0.610367 0.1773244,0.92986 1.4185901,0.27283 3.5589193,0.827511 5.4149073,1.376593 0.0451,-0.214033 0.105157,-0.299895 0.125375,-0.377358 -0.644276,-0.463841 -3.494211,-2.58986 -5.523791,-5.214875 -0.194123,0.06937 -0.4006904,0.109506 -0.6153451,0.109506 -0.200034,0 -0.3978901,-0.03235 -0.5882798,-0.09706 -0.960036,-0.32416 -1.4786317,-1.3688148 -1.154159,-2.3313407 0.2535405,-0.7478711 0.954125,-1.2509099 1.7424388,-1.2509099 0.2000339,0 0.3972676,0.032352 0.5885903,0.097057 0.465086,0.1570967 0.8408873,0.4859298 1.0586544,0.9267493 0.2186983,0.4405106 0.2519866,0.9391937 0.094882,1.4042798 -0.077154,0.2280321 -0.1997219,0.4296214 -0.3496706,0.6047679 1.789415,2.2936989 4.283148,4.2364819 5.124347,4.8605379 0.05879,-0.09427 0.1232,-0.183857 0.192566,-0.268474 C 13.034352,11.524877 12.651397,8.3523363 12.52447,6.5293242 12.408124,6.5184508 12.292704,6.4988314 12.181022,6.4612001 11.796197,6.3314759 11.483236,6.0595768 11.303424,5.694975 11.12299,5.3309941 11.096858,4.9191057 11.2272,4.5355259 c 0.207811,-0.6184558 0.785824,-1.0337654 1.438501,-1.0337654 0.16519,0 0.327582,0.026443 0.484995,0.079328 0.793602,0.2669195 1.222601,1.1305165 0.955992,1.9253622 -0.116975,0.3465598 -0.352469,0.6256117 -0.649564,0.8072902 0.11261,1.6805314 0.455131,4.7224117 1.496985,7.4435537 0.160214,-0.07964 0.331627,-0.142488 0.516418,-0.185723 0.303628,-0.07061 0.615034,-0.07901 0.921151,-0.03951 0.287762,-0.885063 0.99488,-3.197116 1.158827,-5.056527 -0.745383,-0.4277557 -1.113096,-1.3377064 -0.828757,-2.1832598 0.253542,-0.7484936 0.953816,-1.2518445 1.743373,-1.2518445 0.199412,0 0.396335,0.032667 0.587968,0.097372 0.465398,0.1564822 0.842132,0.4856178 1.059899,0.9261268 0.218699,0.4401986 0.251987,0.9391938 0.09457,1.4042798 -0.252297,0.7469382 -0.948526,1.2490442 -1.735905,1.2518445 -0.197234,1.9337613 -0.883197,4.1839063 -1.179358,5.0885683 0.21341,0.107017 0.413754,0.240477 0.595744,0.398823 1.575383,-1.412367 3.219205,-2.943573 4.185464,-3.916054 -0.312651,-0.4974397 -0.408778,-1.1264727 -0.207811,-1.7259521 0.279363,-0.8237768 1.050566,-1.3772145 1.918208,-1.3772145 0.219321,0 0.437398,0.035772 0.646764,0.1060864 0.512373,0.1729687 0.927372,0.5350822 1.167226,1.0191446 0.239854,0.4849969 0.276874,1.034079 0.103597,1.5455171 -0.276564,0.8244005 -1.04621,1.3784595 -1.917585,1.3784595 -0.219945,0 -0.436466,-0.03577 -0.647077,-0.106701 -0.139999,-0.04729 -0.270963,-0.109506 -0.393224,-0.182613 -1.211712,1.236601 -3.175651,3.018548 -4.264792,3.992896 0.11666,0.214655 0.213722,0.447976 0.257898,0.701207 1.955227,-0.285585 3.997251,-0.639299 5.399041,-0.944793 -0.0032,-0.203144 0.02583,-0.409712 0.09457,-0.612856 0.25292,-0.748492 0.953504,-1.251533 1.742751,-1.251533 0.200034,0 0.397268,0.03235 0.587657,0.09644 0.466019,0.157412 0.842754,0.486241 1.060209,0.926751 0.218077,0.440199 0.251364,0.939504 0.09427,1.403968 -0.251054,0.748493 -0.951326,1.251221 -1.742128,1.251221 -0.199101,0 -0.397268,-0.03235 -0.588902,-0.09674 -0.434598,-0.146838 -0.777425,-0.442377 -0.993635,-0.81009 -1.543962,0.355579 -3.66407,0.700584 -5.584145,0.979013 -6.21e-4,0.0199 0,0.03577 -6.21e-4,0.05724 -0.0074,0.228965 -0.04014,0.452643 -0.08587,0.666676 1.94745,0.945727 4.070357,1.90203 5.472459,2.450179 0.324783,-0.555926 0.92053,-0.912441 1.58316,-0.912441 0.200344,0 0.39789,0.03235 0.58828,0.09613 0.465708,0.157412 0.843065,0.486553 1.06052,0.926751 0.217767,0.440509 0.252297,0.938259 0.09488,1.40428 -0.252297,0.748492 -0.951637,1.252153 -1.741816,1.252153 -0.199412,0 -0.396958,-0.03267 -0.587347,-0.09676 -0.466019,-0.157412 -0.842755,-0.48624 -1.061453,-0.926128 -0.131899,-0.265363 -0.195056,-0.551571 -0.191325,-0.839332 -1.536183,-0.572725 -3.664067,-1.556095 -5.542455,-2.466045 -0.09115,0.167057 -0.197856,0.321982 -0.31825,0.462908 0.779291,1.348283 1.989448,3.364796 2.812604,4.618506 0.152117,-0.05071 0.313894,-0.0784 0.480641,-0.0784 0.164568,0 0.328204,0.02676 0.485618,0.08026 0.384823,0.128794 0.695606,0.401 0.875731,0.765602 0.180123,0.362736 0.2075,0.774625 0.07808,1.158827 -0.207812,0.619699 -0.786758,1.035322 -1.439434,1.035322 -0.165192,0 -0.328204,-0.02676 -0.485619,-0.07964 -0.385134,-0.13004 -0.696229,-0.401624 -0.876662,-0.765603 -0.179813,-0.363359 -0.208434,-0.775248 -0.07777,-1.159449 0.04822,-0.144663 0.118835,-0.276874 0.203767,-0.396645 -0.956926,-1.442545 -2.275032,-3.681803 -2.804204,-4.591131 -0.155237,0.07528 -0.321049,0.135634 -0.499617,0.177324 -0.03049,0.0071 -0.06067,0.0071 -0.09115,0.0134 -9.35e-4,0.284963 -0.0019,0.609434 -0.0019,0.98617 0,2.802338 0.09115,5.096658 -0.109506,6.439342 -0.342205,2.289966 -0.447043,4.225595 -0.479086,5.247227 8.907875,-0.0032 16.129308,-7.225788 16.129308,-16.135219 0,-8.9119182 -7.224233,-16.13490645 -16.134597,-16.13490645 z m 5.226696,25.8342067 c 0.39789,0 0.76996,-0.251054 0.904351,-0.650187 0.168303,-0.499928 -0.09923,-1.042167 -0.599477,-1.210468 -0.100792,-0.03391 -0.20408,-0.0504 -0.304874,-0.0504 -0.398823,0 -0.771202,0.252297 -0.905285,0.650808 -0.168923,0.499307 0.09893,1.041543 0.600413,1.209846 0.100791,0.03391 0.204077,0.0504 0.304872,0.0504 z m 4.000674,-3.782285 c 0.135634,0.0451 0.272519,0.06688 0.407533,0.06688 0.531349,0 1.027233,-0.334738 1.207046,-0.86702 0.224299,-0.667298 -0.132529,-1.390902 -0.800757,-1.614891 -0.135019,-0.04542 -0.27283,-0.06751 -0.408155,-0.06751 -0.531971,0 -1.028478,0.33536 -1.206736,0.867642 -0.225231,0.666986 0.133144,1.38997 0.801069,1.614891 z m -15.097409,1.871233 c -0.531661,0 -1.0287888,0.335359 -1.2086015,0.867642 -0.2236764,0.667608 0.1340736,1.39028 0.8020017,1.61489 0.1350188,0.04542 0.2722068,0.06812 0.4075328,0.06812 0.531039,0 1.027233,-0.335983 1.206424,-0.867643 0.225543,-0.667608 -0.134074,-1.390902 -0.800135,-1.616135 -0.135334,-0.0451 -0.272208,-0.06688 -0.407222,-0.06688 z M 12.971202,4.1161779 c -0.101107,-0.033912 -0.204079,-0.050711 -0.304874,-0.050711 -0.397889,0 -0.769646,0.2516746 -0.903417,0.6498752 -0.170169,0.4999297 0.09799,1.0418558 0.599167,1.2101568 0.100792,0.033912 0.204078,0.050081 0.304872,0.050081 0.398513,0 0.770581,-0.2510538 0.904042,-0.6498767 0.168613,-0.4996177 -0.09862,-1.0415438 -0.59979,-1.2095344 z M 6.2048986,18.445494 c -0.610367,0 -1.1790463,0.38389 -1.3849913,0.993324 -0.2563423,0.764982 0.1524322,1.591248 0.9171066,1.849456 0.1543075,0.05164 0.3123387,0.07652 0.4666414,0.07652 0.6094341,0 1.177491,-0.383268 1.3825031,-0.99208 0.2578961,-0.764359 -0.1524322,-1.592491 -0.9152393,-1.850699 -0.1543074,-0.05164 -0.3117177,-0.07652 -0.4660205,-0.07652 z m 0.3194946,-5.047505 c -0.3978901,0.02053 -0.7562704,0.291495 -0.8691975,0.695918 -0.1434184,0.508017 0.1524321,1.035011 0.6620092,1.177491 0.1020364,0.02893 0.2047001,0.03982 0.3058052,0.03423 0.3972676,-0.02022 0.7572033,-0.290562 0.86982,-0.695296 C 7.6356181,14.102001 7.3397676,13.575007 6.8323762,13.432837 6.7300246,13.403589 6.6261208,13.3927 6.5243932,13.397995 z M 7.88543,7.3848454 C 7.750411,7.3394293 7.6138461,7.317651 7.4782078,7.317651 c -0.5319715,0 -1.0272335,0.3353603 -1.2082895,0.8676422 -0.2242989,0.6676083 0.1347038,1.3899695 0.8004447,1.6145805 0.135019,0.045416 0.2728305,0.067194 0.4078448,0.067194 0.531661,0 1.0278559,-0.3353603 1.2070461,-0.8670197 C 8.9104873,8.3333729 8.5521101,7.6094563 7.88543,7.3848454 z"
       id="path2995" />
  </g>
</svg>
