<?xml version="1.0" encoding="UTF-8" standalone="no"?>
<svg
   xmlns:dc="http://purl.org/dc/elements/1.1/"
   xmlns:cc="http://creativecommons.org/ns#"
   xmlns:rdf="http://www.w3.org/1999/02/22-rdf-syntax-ns#"
   xmlns:svg="http://www.w3.org/2000/svg"
   xmlns="http://www.w3.org/2000/svg"
   xmlns:sodipodi="http://sodipodi.sourceforge.net/DTD/sodipodi-0.dtd"
   xmlns:inkscape="http://www.inkscape.org/namespaces/inkscape"
   version="1.1"
   id="Layer_1"
   x="0px"
   y="0px"
   width="100px"
   height="100px"
   viewBox="0 0 100 100"
   enable-background="new 0 0 100 100"
   xml:space="preserve"
   inkscape:version="0.48.5 r10040"
   sodipodi:docname="data.svg"><metadata
     id="metadata15"><rdf:RDF><cc:Work
         rdf:about=""><dc:format>image/svg+xml</dc:format><dc:type
           rdf:resource="http://purl.org/dc/dcmitype/StillImage" /></cc:Work></rdf:RDF></metadata><defs
     id="defs13" /><sodipodi:namedview
     pagecolor="#ffffff"
     bordercolor="#666666"
     borderopacity="1"
     objecttolerance="10"
     gridtolerance="10"
     guidetolerance="10"
     inkscape:pageopacity="0"
     inkscape:pageshadow="2"
     inkscape:window-width="1268"
     inkscape:window-height="710"
     id="namedview11"
     showgrid="false"
     inkscape:zoom="2.36"
     inkscape:cx="50"
     inkscape:cy="50"
     inkscape:window-x="0"
     inkscape:window-y="0"
     inkscape:window-maximized="0"
     inkscape:current-layer="Layer_1" /><g
     id="g3"
     style="fill:#3389c0;fill-opacity:1"><path
       d="M50.132,6.381c-1.546,0-34.877,0.096-40.561,7.582c-0.645,0.332-1.09,0.996-1.09,1.771c0,0.465,0.092,0.908,0.264,1.331   v14.948c0,9.765,39.696,9.877,41.387,9.877c1.689,0,41.387-0.112,41.387-9.877V16.258C91.519,6.494,51.821,6.381,50.132,6.381z    M50.132,10.381c21.515,0,34.48,3.289,36.996,5.481c-1.712,2.18-14.851,5.749-37.259,5.749c-21.517,0-34.481-3.29-36.997-5.481   C14.585,13.95,27.724,10.381,50.132,10.381z M87.519,31.942c-1.034,2.154-14.285,5.947-37.387,5.947s-36.353-3.793-37.387-5.947   V20.57c10.297,4.97,35.777,5.041,37.124,5.041c1.37,0,27.728-0.074,37.649-5.308V31.942z"
       id="path5"
       style="fill:#3389c0;fill-opacity:1" /><path
       d="M89.519,38.417c-1.08,0-1.96,0.856-1.998,1.927c-1.024,2.153-14.276,5.95-37.389,5.95s-36.364-3.796-37.389-5.95   c-0.038-1.071-0.918-1.927-1.998-1.927c-1.104,0-2,0.896-2,2v17.33c0,9.765,39.696,9.877,41.387,9.877   c1.689,0,41.387-0.112,41.387-9.877v-17.33C91.519,39.312,90.623,38.417,89.519,38.417z M87.519,57.677   c-1.034,2.154-14.284,5.947-37.387,5.947s-36.353-3.793-37.387-5.947V45.123c10.119,5.098,36.028,5.171,37.387,5.171   s27.268-0.073,37.387-5.171V57.677z"
       id="path7"
       style="fill:#3389c0;fill-opacity:1" /><path
       d="M89.519,64.412c-1.08,0-1.96,0.856-1.998,1.927c-1.024,2.153-14.276,5.95-37.389,5.95s-36.364-3.796-37.389-5.95   c-0.038-1.071-0.918-1.927-1.998-1.927c-1.104,0-2,0.896-2,2v17.33c0,9.765,39.696,9.877,41.387,9.877   c1.689,0,41.387-0.112,41.387-9.877v-17.33C91.519,65.307,90.623,64.412,89.519,64.412z M87.519,83.671   c-1.034,2.154-14.285,5.947-37.387,5.947s-36.353-3.793-37.387-5.947V71.118c10.119,5.098,36.028,5.171,37.387,5.171   s27.268-0.073,37.387-5.171V83.671z"
       id="path9"
       style="fill:#3389c0;fill-opacity:1" /></g></svg>