<?xml version="1.0" encoding="UTF-8" standalone="no"?>
<svg
   xmlns:dc="http://purl.org/dc/elements/1.1/"
   xmlns:cc="http://creativecommons.org/ns#"
   xmlns:rdf="http://www.w3.org/1999/02/22-rdf-syntax-ns#"
   xmlns:svg="http://www.w3.org/2000/svg"
   xmlns="http://www.w3.org/2000/svg"
   xmlns:sodipodi="http://sodipodi.sourceforge.net/DTD/sodipodi-0.dtd"
   xmlns:inkscape="http://www.inkscape.org/namespaces/inkscape"
   version="1.1"
   id="Layer_1"
   x="0px"
   y="0px"
   width="100px"
   height="100px"
   viewBox="0 0 100 100"
   enable-background="new 0 0 100 100"
   xml:space="preserve"
   inkscape:version="0.48.5 r10040"
   sodipodi:docname="grow.svg"><metadata
     id="metadata16"><rdf:RDF><cc:Work
         rdf:about=""><dc:format>image/svg+xml</dc:format><dc:type
           rdf:resource="http://purl.org/dc/dcmitype/StillImage" /></cc:Work></rdf:RDF></metadata><defs
     id="defs14" /><sodipodi:namedview
     pagecolor="#ffffff"
     bordercolor="#666666"
     borderopacity="1"
     objecttolerance="10"
     gridtolerance="10"
     guidetolerance="10"
     inkscape:pageopacity="0"
     inkscape:pageshadow="2"
     inkscape:window-width="1342"
     inkscape:window-height="820"
     id="namedview12"
     showgrid="false"
     inkscape:zoom="2.36"
     inkscape:cx="-27.754237"
     inkscape:cy="50"
     inkscape:window-x="0"
     inkscape:window-y="0"
     inkscape:window-maximized="0"
     inkscape:current-layer="Layer_1" /><g
     id="Captions" /><path
     d="M41.514,32.562c0.813,0,1.609-0.063,2.393-0.172l-7.386-7.387l1.981-1.98l7.409,7.408c0.144-0.904,0.229-1.827,0.229-2.773  c0-9.673-7.842-17.515-17.516-17.515c-1.399,0-2.756,0.168-4.058,0.478c-0.369,1.414-0.566,2.897-0.566,4.426  C23.999,24.72,31.839,32.562,41.514,32.562z"
     id="path4"
     style="fill:#3389c0;fill-opacity:1" /><g
     id="g6"
     style="fill:#3389c0;fill-opacity:1"><path
       d="M48.072,50.375c-0.046-0.646-0.078-1.304-0.078-1.853c0-0.198,0.01-0.387,0.018-0.58H48   c0.004-0.064,0.012-0.127,0.018-0.191c0.036-0.808,0.134-1.557,0.286-2.253c1.774-9.523,10.416-16.49,20.333-15.909   c1.488,0.087,2.963,0.342,4.379,0.759l-0.789,2.689c-1.215-0.357-2.477-0.575-3.752-0.651c-7.615-0.446-14.35,4.302-16.76,11.164   c5.729,3.879,12.631,6.154,20.07,6.154c8.287,0,15.912-2.815,21.988-7.533C91.391,30.68,81.211,22.043,69.012,22.043   c-10.645,0-19.746,6.584-23.475,15.899c-0.03,0.074-0.066,0.14-0.097,0.215c-1.106,2.843-1.714,5.937-1.714,9.173   c0,0.791,0.077,1.944,0.185,3.044H48.072z"
       id="path8"
       style="fill:#3389c0;fill-opacity:1" /><path
       d="M95.783,49.783c-3.957-1.213-6.449,1.604-6.449,1.604L67.26,73.688l-19.743,0.024c0,0-2.265-2.083-3.427-4.561   s-1.052-5.236-1.052-5.236l20.958,0.026c0,0,4.809,0.211,6.021-3.791c0.59-1.944,0.621-4.762,0.621-4.762l-42.006-0.014l0,0   l-4.035-0.001c0,0-2.581,0.057-3.746,0.561c-1.228,0.531-2.395,1.684-2.395,1.684L0,75.964l21.46,21.46l12.348-11.957h35.383   c0,0,2.738,0.136,4.275-0.802c1.264-0.772,2.295-2.279,2.295-2.279L100,52.619C100,52.619,99.145,50.814,95.783,49.783z"
       id="path10"
       style="fill:#3389c0;fill-opacity:1" /></g></svg>