<?xml version="1.0" encoding="UTF-8" standalone="no"?>
<!-- Generator: Adobe Illustrator 15.1.0, SVG Export Plug-In . SVG Version: 6.00 Build 0)  -->

<svg
   xmlns:dc="http://purl.org/dc/elements/1.1/"
   xmlns:cc="http://creativecommons.org/ns#"
   xmlns:rdf="http://www.w3.org/1999/02/22-rdf-syntax-ns#"
   xmlns:svg="http://www.w3.org/2000/svg"
   xmlns="http://www.w3.org/2000/svg"
   xmlns:sodipodi="http://sodipodi.sourceforge.net/DTD/sodipodi-0.dtd"
   xmlns:inkscape="http://www.inkscape.org/namespaces/inkscape"
   version="1.1"
   id="Calque_1"
   x="0px"
   y="0px"
   width="75.014px"
   height="100px"
   viewBox="12.493 0 75.014 100"
   enable-background="new 12.493 0 75.014 100"
   xml:space="preserve"
   inkscape:version="0.48.5 r10040"
   sodipodi:docname="unlock.svg"><metadata
     id="metadata9"><rdf:RDF><cc:Work
         rdf:about=""><dc:format>image/svg+xml</dc:format><dc:type
           rdf:resource="http://purl.org/dc/dcmitype/StillImage" /></cc:Work></rdf:RDF></metadata><defs
     id="defs7" /><sodipodi:namedview
     pagecolor="#ffffff"
     bordercolor="#666666"
     borderopacity="1"
     objecttolerance="10"
     gridtolerance="10"
     guidetolerance="10"
     inkscape:pageopacity="0"
     inkscape:pageshadow="2"
     inkscape:window-width="760"
     inkscape:window-height="480"
     id="namedview5"
     showgrid="false"
     inkscape:zoom="2.36"
     inkscape:cx="37.507"
     inkscape:cy="50"
     inkscape:window-x="0"
     inkscape:window-y="0"
     inkscape:window-maximized="0"
     inkscape:current-layer="Calque_1" /><path
     d="M56.426,0c-17.289,0-31.08,14.421-31.08,31.326H37.87c0-10.565,8.631-18.792,19.016-18.792  c10.357,0,18.999,8.452,18.999,18.821v6.311H12.493v43.838C12.493,91.876,21.234,100,31.59,100H69.2  c10.355,0,18.307-8.124,18.307-18.497V31.354C87.507,14.068,73.688,0,56.426,0z M57.807,82.384c0.114,0.423,0.021,0.867-0.242,1.22  c-0.271,0.347-0.681,0.549-1.122,0.549H44.349c-0.437,0-0.848-0.202-1.117-0.549c-0.269-0.353-0.357-0.799-0.245-1.222l3.412-12.984  c-2.343-1.396-3.799-3.907-3.799-6.691c0-4.308,3.496-7.802,7.796-7.802c4.296,0,7.796,3.494,7.796,7.802  c0,2.784-1.459,5.297-3.799,6.692L57.807,82.384z"
     id="path3"
     style="fill:#3389c0;fill-opacity:1" /></svg>